<svg width="72" height="15" viewBox="0 0 72 15" fill="none" xmlns="http://www.w3.org/2000/svg">
<path d="M8.86335 11.9012H4.24225L3.10761 14.5774H0.394775L6.67658 0.385254H6.80036L13.0615 14.5774H9.89485L8.86335 11.9012ZM7.94532 9.62031L6.60438 6.29529L5.20154 9.62031H7.94532Z" fill="#111111"/>
<path d="M21.313 3.2133C20.8193 3.17772 20.3263 3.29088 19.8998 3.53769C19.7263 3.66152 19.5884 3.82753 19.4998 4.01946C19.4112 4.21138 19.3749 4.42264 19.3944 4.63252C19.4067 4.8677 19.4806 5.09577 19.6089 5.29467C19.7372 5.49357 19.9156 5.65657 20.1267 5.7679C20.7307 6.16017 21.3822 6.47687 22.0659 6.71066C22.6595 6.9167 23.227 7.1888 23.7576 7.52165C24.2374 7.8461 24.6331 8.27663 24.9129 8.77867C25.2406 9.40433 25.397 10.1031 25.3667 10.8061C25.3717 11.5199 25.1671 12.2199 24.7774 12.8223C24.3877 13.4247 23.8295 13.9037 23.1696 14.2021C22.3689 14.5778 21.488 14.7586 20.6012 14.7293C19.7689 14.73 18.9412 14.6069 18.1463 14.3643C17.325 14.1303 16.5505 13.7601 15.8563 13.2695L17.1148 11.1609C17.6153 11.5234 18.1681 11.8104 18.7548 12.0125C19.2873 12.2218 19.8527 12.3384 20.4259 12.3571C20.9552 12.369 21.4783 12.2431 21.9422 11.9922C22.1496 11.8685 22.3169 11.6894 22.4247 11.4759C22.5324 11.2623 22.5762 11.0229 22.5507 10.7858C22.5507 10.0864 21.8803 9.47814 20.4878 8.97128C19.8057 8.71542 19.1408 8.41747 18.497 8.0792C17.9493 7.785 17.4767 7.37254 17.1148 6.87286C16.7072 6.27484 16.5048 5.56446 16.5371 4.8454C16.5228 4.31684 16.6231 3.79134 16.8311 3.30373C17.0392 2.81612 17.3504 2.37756 17.744 2.0171C18.6087 1.25267 19.727 0.823845 20.89 0.810766C21.766 0.792847 22.6395 0.90913 23.4791 1.15543C24.2097 1.40148 24.9035 1.74241 25.5421 2.16916L24.5106 4.19662C23.5458 3.60979 22.446 3.27158 21.313 3.2133Z" fill="#111111"/>
<path d="M38.4048 0.892425V3.53825H35.0215V14.5777H32.2674V3.53825H29.0182V0.892425H38.4048Z" fill="#111111"/>
<path d="M42.9026 3.53825V0.892425H52.413V3.53825H42.9026ZM42.9026 9.06307V6.41724H51.6703V9.02252L42.9026 9.06307ZM45.6464 12.0232H52.6709V14.6183H42.9026V11.9826L45.6464 12.0232Z" fill="#111111"/>
<path d="M65.1516 14.5777C64.6701 14.6789 64.1792 14.7299 63.6869 14.7298C62.4401 14.7391 61.214 14.4169 60.1385 13.7971C59.3323 13.3395 58.6257 12.7301 58.0592 12.0039C57.4926 11.2778 57.0773 10.449 56.8368 9.56496C56.5964 8.68094 56.5356 7.75902 56.6578 6.85189C56.7801 5.94477 57.0831 5.07021 57.5495 4.27822C58.1715 3.21439 59.0635 2.32723 60.1385 1.70335C61.212 1.07593 62.4379 0.744768 63.6869 0.744768C64.9358 0.744768 66.1617 1.07593 67.2352 1.70335C68.3161 2.32996 69.2176 3.2159 69.8552 4.27822C70.3715 5.12746 70.6933 6.07701 70.7984 7.06087C70.9035 8.04473 70.7893 9.03927 70.4638 9.97537C70.2253 10.6793 69.8773 11.3427 69.4323 11.942H71.65V14.5777H65.1516ZM60.0044 9.94496C60.3839 10.5963 60.9273 11.1409 61.5826 11.5264C62.2463 11.9264 63.0115 12.1338 63.79 12.1245C64.5448 12.1264 65.2849 11.9191 65.9252 11.5264C66.5604 11.1359 67.0826 10.5913 67.4415 9.94496C67.8009 9.26913 67.9885 8.51785 67.9882 7.7553C67.9876 6.99038 67.7926 6.23771 67.4209 5.56565C67.0634 4.92745 66.5409 4.39335 65.906 4.01738C65.2711 3.64141 64.5464 3.43691 63.8052 3.42456C63.0641 3.41222 62.3328 3.59247 61.6853 3.94708C61.0378 4.30169 60.4971 4.81808 60.1179 5.444C60.09 5.48227 60.0659 5.52299 60.0457 5.56565C59.6645 6.23402 59.4688 6.98916 59.4784 7.7553C59.4548 8.51795 59.6362 9.27323 60.0044 9.94496Z" fill="#111111"/>
</svg>
