<svg width="1920" height="339" viewBox="0 0 1920 339" fill="none" xmlns="http://www.w3.org/2000/svg">
<g opacity="0.8">
<path fill-rule="evenodd" clip-rule="evenodd" d="M169.891 351.513C169.05 349.212 167.669 346.993 165.746 344.858C163.823 342.723 161.776 341.133 159.604 340.088C157.432 339.043 155.243 338.475 153.035 338.385C150.828 338.295 148.695 338.629 146.635 339.387C144.576 340.145 142.712 341.275 141.043 342.777C139.344 344.308 138.01 346.057 137.041 348.026C136.072 349.995 135.517 352.082 135.375 354.286C135.234 356.491 135.57 358.728 136.382 360.997C137.194 363.267 138.562 365.469 140.484 367.604C142.407 369.739 144.469 371.345 146.669 372.422C148.841 373.467 151.031 374.035 153.238 374.125C155.445 374.215 157.579 373.881 159.638 373.123C161.669 372.333 163.534 371.173 165.233 369.643C166.902 368.141 168.235 366.421 169.233 364.484C170.202 362.515 170.757 360.428 170.898 358.224C171.039 356.019 170.704 353.782 169.891 351.513ZM160.866 358.081C160.339 359.422 159.441 360.662 158.174 361.803C156.907 362.944 155.58 363.707 154.191 364.091C152.774 364.444 151.43 364.442 150.159 364.087C148.887 363.731 147.764 363.012 146.788 361.928C145.841 360.876 145.257 359.7 145.037 358.398C144.787 357.065 144.926 355.728 145.454 354.387C145.981 353.046 146.879 351.806 148.145 350.665C149.382 349.552 150.694 348.803 152.082 348.419C153.47 348.034 154.83 348.022 156.161 348.382C157.432 348.737 158.542 349.441 159.489 350.493C160.464 351.576 161.062 352.769 161.283 354.07C161.504 355.372 161.365 356.709 160.866 358.081Z" fill="#FF7236"/>
<path d="M187.492 323.871L181.286 318.763L167.87 398.72L174.076 403.829L187.492 323.871Z" fill="#FF7236"/>
</g>
<g opacity="0.8">
<path fill-rule="evenodd" clip-rule="evenodd" d="M1719.05 10.981C1719.96 13.4695 1721.45 15.8682 1723.53 18.1772C1725.61 20.4862 1727.83 22.2058 1730.18 23.3359C1732.52 24.4661 1734.89 25.0798 1737.28 25.1771C1739.67 25.2744 1741.97 24.9133 1744.2 24.0938C1746.43 23.2743 1748.44 22.0521 1750.25 20.4273C1752.09 18.7725 1753.53 16.8805 1754.58 14.7514C1755.62 12.6223 1756.22 10.3657 1756.38 7.98167C1756.53 5.59765 1756.17 3.17863 1755.29 0.724626C1754.41 -1.72939 1752.93 -4.11091 1750.85 -6.41992C1748.77 -8.72894 1746.54 -10.4657 1744.16 -11.6303C1741.81 -12.7605 1739.45 -13.3742 1737.06 -13.4715C1734.67 -13.5688 1732.37 -13.2077 1730.14 -12.3882C1727.94 -11.5342 1725.93 -10.2798 1724.09 -8.62491C1722.28 -7.00014 1720.84 -5.14043 1719.76 -3.04578C1718.72 -0.916657 1718.12 1.33992 1717.96 3.72393C1717.81 6.10795 1718.17 8.52697 1719.05 10.981ZM1728.81 3.87792C1729.38 2.42824 1730.35 1.08659 1731.72 -0.14703C1733.09 -1.38065 1734.53 -2.20535 1736.03 -2.62114C1737.56 -3.00247 1739.02 -3.00087 1740.39 -2.61633C1741.76 -2.2318 1742.98 -1.45366 1744.03 -0.281916C1745.06 0.855361 1745.69 2.12776 1745.93 3.5353C1746.2 4.9773 1746.05 6.42315 1745.48 7.87282C1744.91 9.32251 1743.94 10.6641 1742.57 11.8978C1741.23 13.1013 1739.81 13.911 1738.31 14.3268C1736.81 14.7425 1735.34 14.756 1733.9 14.3671C1732.52 13.9825 1731.32 13.2216 1730.3 12.0844C1729.25 10.9126 1728.6 9.62297 1728.36 8.21544C1728.12 6.8079 1728.27 5.36206 1728.81 3.87792Z" fill="#F04F0A"/>
<path fill-rule="evenodd" clip-rule="evenodd" d="M1670.03 5.74339C1667.95 3.43437 1666.46 1.03562 1665.55 -1.45285C1664.67 -3.90687 1664.31 -6.32588 1664.46 -8.7099C1664.61 -11.0939 1665.21 -13.3505 1666.26 -15.4796C1667.34 -17.5743 1668.78 -19.434 1670.58 -21.0587C1672.42 -22.7136 1674.44 -23.968 1676.64 -24.822C1678.86 -25.6415 1681.17 -26.0026 1683.56 -25.9053C1685.94 -25.808 1688.31 -25.1943 1690.66 -24.0642C1693.04 -22.8996 1695.27 -21.1628 1697.35 -18.8538C1699.43 -16.5447 1700.91 -14.1632 1701.78 -11.7092C1702.66 -9.2552 1703.03 -6.83619 1702.87 -4.45217C1702.72 -2.06815 1702.12 0.18842 1701.07 2.31754C1700.02 4.44666 1698.58 6.33865 1696.74 7.9935C1694.94 9.61827 1692.92 10.8404 1690.7 11.6599C1688.47 12.4795 1686.16 12.8406 1683.78 12.7433C1681.39 12.646 1679.02 12.0322 1676.67 10.9021C1674.32 9.77197 1672.11 8.0524 1670.03 5.74339ZM1678.22 -12.5809C1676.85 -11.3472 1675.88 -10.0056 1675.31 -8.55592C1674.77 -7.07177 1674.62 -5.62594 1674.86 -4.2184C1675.09 -2.81086 1675.74 -1.52122 1676.8 -0.349482C1677.82 0.787791 1679.02 1.5487 1680.39 1.93323C1681.83 2.32215 1683.3 2.3087 1684.81 1.89291C1686.31 1.47712 1687.73 0.667458 1689.06 -0.536073C1690.43 -1.76969 1691.4 -3.11134 1691.97 -4.56103C1692.54 -6.0107 1692.69 -7.45654 1692.42 -8.89854C1692.19 -10.3061 1691.55 -11.5785 1690.53 -12.7158C1689.48 -13.8875 1688.26 -14.6656 1686.89 -15.0502C1685.51 -15.4347 1684.06 -15.4363 1682.52 -15.055C1681.02 -14.6392 1679.59 -13.8145 1678.22 -12.5809Z" fill="#F04F0A"/>
<path d="M1700.02 40.8722L1706.73 46.3968L1721.24 -40.0684L1714.53 -45.5931L1700.02 40.8722Z" fill="#F04F0A"/>
</g>
<g opacity="0.8">
<path fill-rule="evenodd" clip-rule="evenodd" d="M66.1015 330.039C68.2428 328.849 70.2175 327.137 72.0257 324.904C73.8338 322.671 75.0841 320.4 75.7766 318.092C76.469 315.783 76.687 313.531 76.4306 311.337C76.1742 309.143 75.5106 307.088 74.44 305.173C73.3693 303.257 71.9615 301.593 70.2165 300.18C68.4391 298.741 66.5024 297.697 64.4062 297.048C62.31 296.399 60.1621 296.177 57.9626 296.382C55.7631 296.588 53.6061 297.269 51.4919 298.426C49.3776 299.583 47.4163 301.279 45.6082 303.511C43.8 305.744 42.5362 308.032 41.8168 310.374C41.1243 312.683 40.9063 314.934 41.1627 317.128C41.4191 319.322 42.0827 321.377 43.1533 323.293C44.251 325.175 45.6885 326.835 47.4658 328.275C49.2108 329.688 51.1179 330.736 53.1872 331.418C55.2834 332.067 57.4312 332.289 59.6307 332.083C61.8303 331.878 63.9872 331.197 66.1015 330.039ZM58.202 322.153C56.7955 321.841 55.4297 321.149 54.1048 320.076C52.7799 319.003 51.819 317.811 51.222 316.5C50.652 315.156 50.4432 313.828 50.5955 312.517C50.7479 311.205 51.2828 309.983 52.2004 308.85C53.091 307.75 54.1618 306.989 55.4129 306.568C56.6909 306.113 58.0332 306.041 59.4398 306.352C60.8463 306.663 62.2121 307.356 63.537 308.428C64.8296 309.475 65.7744 310.654 66.3713 311.965C66.9683 313.276 67.1933 314.617 67.0463 315.988C66.8939 317.3 66.3725 318.505 65.4819 319.605C64.5643 320.738 63.48 321.515 62.2289 321.937C60.9779 322.359 59.6356 322.431 58.202 322.153Z" fill="#FF7236"/>
<path d="M96.1559 343.099L100.231 336.17L19.1596 335.428L15.0845 342.357L96.1559 343.099Z" fill="#FF7236"/>
</g>
<g opacity="0.8">
<path fill-rule="evenodd" clip-rule="evenodd" d="M1831.29 34.2024C1828.97 35.49 1826.84 37.3411 1824.88 39.7557C1822.93 42.1704 1821.58 44.6261 1820.83 47.1227C1820.08 49.6193 1819.84 52.054 1820.12 54.4267C1820.4 56.7995 1821.11 59.0216 1822.27 61.0929C1823.43 63.1643 1824.95 64.964 1826.84 66.4921C1828.76 68.0485 1830.86 69.1776 1833.12 69.8795C1835.39 70.5814 1837.71 70.8212 1840.09 70.5991C1842.47 70.377 1844.8 69.6402 1847.09 68.3887C1849.37 67.1372 1851.5 65.3041 1853.45 62.8895C1855.41 60.4748 1856.77 58.0011 1857.55 55.4685C1858.3 52.9719 1858.54 50.5372 1858.26 48.1644C1857.98 45.7917 1857.26 43.5696 1856.11 41.4982C1854.92 39.4629 1853.36 37.667 1851.44 36.1106C1849.55 34.5825 1847.49 33.4495 1845.25 32.7117C1842.99 32.0098 1840.67 31.7699 1838.29 31.992C1835.91 32.2141 1833.58 32.9509 1831.29 34.2024ZM1839.83 42.7311C1841.35 43.0678 1842.83 43.8162 1844.26 44.9764C1845.7 46.1366 1846.73 47.4257 1847.38 48.8435C1848 50.2974 1848.22 51.7334 1848.06 53.1515C1847.89 54.5696 1847.31 55.8913 1846.32 57.1167C1845.36 58.306 1844.2 59.1286 1842.85 59.5846C1841.47 60.0766 1840.01 60.1543 1838.49 59.8176C1836.97 59.481 1835.5 58.7325 1834.06 57.5723C1832.66 56.4404 1831.64 55.1655 1831 53.7477C1830.35 52.3298 1830.11 50.8797 1830.27 49.3972C1830.43 47.9791 1831 46.6754 1831.96 45.4861C1832.95 44.2608 1834.12 43.4201 1835.48 42.9641C1836.83 42.5082 1838.28 42.4305 1839.83 42.7311Z" fill="#F04F0A"/>
<path fill-rule="evenodd" clip-rule="evenodd" d="M1828.79 -15.0349C1830.75 -17.4496 1832.88 -19.3007 1835.2 -20.5882C1837.49 -21.8397 1839.82 -22.5765 1842.2 -22.7986C1844.58 -23.0207 1846.9 -22.7808 1849.17 -22.079C1851.4 -21.3411 1853.47 -20.2081 1855.35 -18.68C1857.27 -17.1236 1858.83 -15.3277 1860.02 -13.2924C1861.17 -11.2211 1861.89 -8.999 1862.17 -6.62624C1862.45 -4.25348 1862.21 -1.81879 1861.46 0.677832C1860.68 3.21049 1859.32 5.68416 1857.36 8.09882C1855.41 10.5135 1853.29 12.3466 1851 13.5981C1848.71 14.8496 1846.38 15.5864 1844 15.8085C1841.62 16.0306 1839.3 15.7907 1837.03 15.0889C1834.77 14.387 1832.67 13.2579 1830.75 11.7015C1828.86 10.1734 1827.34 8.37364 1826.18 6.30228C1825.02 4.23092 1824.31 2.00885 1824.03 -0.363908C1823.75 -2.73667 1823.99 -5.17135 1824.74 -7.66798C1825.49 -10.1646 1826.84 -12.6203 1828.79 -15.0349ZM1848.17 -9.81423C1846.74 -10.9745 1845.26 -11.7229 1843.74 -12.0595C1842.19 -12.3602 1840.74 -12.2825 1839.39 -11.8265C1838.03 -11.3705 1836.86 -10.5299 1835.87 -9.30453C1834.91 -8.11523 1834.34 -6.81152 1834.18 -5.39342C1834.02 -3.91098 1834.26 -2.46084 1834.91 -1.043C1835.55 0.374836 1836.58 1.64972 1837.97 2.78165C1839.41 3.94187 1840.88 4.69031 1842.4 5.02695C1843.93 5.3636 1845.38 5.28592 1846.76 4.79391C1848.11 4.33795 1849.27 3.51531 1850.23 2.326C1851.22 1.10065 1851.8 -0.221078 1851.97 -1.63918C1852.13 -3.05728 1851.91 -4.49327 1851.29 -5.94714C1850.65 -7.36498 1849.61 -8.65401 1848.17 -9.81423Z" fill="#F04F0A"/>
<path d="M1798.79 20.0796L1794.38 27.5724L1882.05 28.3753L1886.46 20.8824L1798.79 20.0796Z" fill="#F04F0A"/>
</g>
<g opacity="0.8">
<path fill-rule="evenodd" clip-rule="evenodd" d="M131.205 234.239C131.877 231.883 132.063 229.276 131.763 226.419C131.462 223.561 130.741 221.071 129.598 218.949C128.455 216.827 127.017 215.081 125.284 213.711C123.551 212.341 121.629 211.357 119.518 210.759C117.406 210.162 115.234 209.981 113.001 210.216C110.726 210.455 108.619 211.086 106.677 212.109C104.736 213.132 103.061 214.494 101.651 216.195C100.24 217.895 99.1971 219.902 98.5204 222.216C97.8437 224.529 97.6556 227.114 97.9559 229.972C98.2562 232.829 98.9801 235.341 100.127 237.505C101.27 239.627 102.708 241.374 104.441 242.744C106.174 244.114 108.096 245.098 110.207 245.695C112.314 246.25 114.505 246.408 116.78 246.169C119.013 245.934 121.102 245.326 123.048 244.346C124.989 243.322 126.665 241.96 128.075 240.26C129.485 238.559 130.528 236.552 131.205 234.239ZM120.042 234.248C118.828 235.022 117.372 235.499 115.677 235.677C113.981 235.855 112.459 235.692 111.11 235.187C109.756 234.639 108.67 233.848 107.85 232.813C107.03 231.778 106.544 230.535 106.392 229.085C106.244 227.678 106.463 226.383 107.05 225.2C107.632 223.975 108.53 222.975 109.745 222.2C110.96 221.426 112.415 220.949 114.11 220.771C115.764 220.597 117.266 220.763 118.615 221.268C119.965 221.773 121.072 222.562 121.937 223.635C122.757 224.67 123.241 225.891 123.389 227.299C123.541 228.749 123.324 230.065 122.737 231.248C122.151 232.431 121.253 233.431 120.042 234.248Z" fill="#FF7236"/>
<path fill-rule="evenodd" clip-rule="evenodd" d="M165.032 264.803C165.332 267.66 165.147 270.267 164.474 272.623C163.798 274.936 162.754 276.943 161.344 278.644C159.934 280.344 158.258 281.706 156.317 282.729C154.372 283.71 152.282 284.318 150.049 284.553C147.775 284.792 145.584 284.634 143.477 284.079C141.365 283.482 139.443 282.498 137.71 281.128C135.978 279.758 134.54 278.011 133.397 275.889C132.25 273.724 131.526 271.213 131.225 268.356C130.925 265.498 131.113 262.913 131.79 260.6C132.467 258.286 133.51 256.279 134.92 254.579C136.33 252.878 138.006 251.516 139.947 250.493C141.888 249.47 143.996 248.838 146.27 248.599C148.503 248.365 150.676 248.546 152.787 249.143C154.899 249.741 156.821 250.725 158.554 252.095C160.287 253.465 161.724 255.211 162.867 257.333C164.01 259.455 164.732 261.945 165.032 264.803ZM148.946 274.061C150.642 273.883 152.097 273.406 153.312 272.632C154.522 271.815 155.42 270.815 156.007 269.632C156.593 268.449 156.81 267.133 156.658 265.683C156.51 264.275 156.026 263.054 155.207 262.019C154.341 260.946 153.234 260.157 151.885 259.652C150.536 259.147 149.034 258.981 147.38 259.155C145.684 259.333 144.229 259.81 143.014 260.584C141.8 261.359 140.901 262.358 140.319 263.584C139.733 264.767 139.514 266.062 139.662 267.469C139.814 268.919 140.3 270.162 141.12 271.197C141.939 272.232 143.026 273.023 144.379 273.571C145.729 274.076 147.251 274.239 148.946 274.061Z" fill="#FF7236"/>
<path d="M161.691 222.222L159.673 214.441L101.822 271.242L103.84 279.023L161.691 222.222Z" fill="#FF7236"/>
</g>
<g opacity="0.8">
<path fill-rule="evenodd" clip-rule="evenodd" d="M1760.89 137.8C1760.16 140.348 1759.96 143.167 1760.28 146.257C1760.61 149.347 1761.39 152.04 1762.62 154.335C1763.86 156.629 1765.42 158.518 1767.29 159.999C1769.16 161.481 1771.24 162.545 1773.52 163.191C1775.81 163.837 1778.16 164.033 1780.57 163.779C1783.03 163.521 1785.31 162.838 1787.41 161.732C1789.51 160.625 1791.32 159.152 1792.85 157.313C1794.37 155.474 1795.5 153.304 1796.23 150.802C1796.96 148.301 1797.17 145.505 1796.84 142.415C1796.52 139.325 1795.73 136.609 1794.49 134.268C1793.26 131.973 1791.7 130.085 1789.83 128.603C1787.96 127.122 1785.88 126.058 1783.59 125.412C1781.31 124.812 1778.95 124.641 1776.49 124.9C1774.07 125.154 1771.81 125.811 1769.71 126.871C1767.61 127.978 1765.8 129.451 1764.27 131.289C1762.75 133.128 1761.62 135.299 1760.89 137.8ZM1772.96 137.791C1774.27 136.953 1775.84 136.438 1777.68 136.245C1779.51 136.053 1781.16 136.229 1782.62 136.775C1784.08 137.368 1785.26 138.223 1786.14 139.343C1787.03 140.462 1787.55 141.805 1787.72 143.374C1787.88 144.896 1787.64 146.296 1787.01 147.575C1786.38 148.9 1785.41 149.982 1784.09 150.819C1782.78 151.657 1781.21 152.172 1779.37 152.364C1777.58 152.552 1775.96 152.373 1774.5 151.827C1773.04 151.281 1771.84 150.428 1770.91 149.267C1770.02 148.148 1769.5 146.827 1769.34 145.305C1769.17 143.737 1769.41 142.314 1770.04 141.035C1770.68 139.756 1771.65 138.674 1772.96 137.791Z" fill="#F04F0A"/>
<path fill-rule="evenodd" clip-rule="evenodd" d="M1724.31 104.749C1723.98 101.659 1724.18 98.84 1724.91 96.2922C1725.64 93.7905 1726.77 91.6203 1728.29 89.7813C1729.82 87.9424 1731.63 86.4696 1733.73 85.363C1735.83 84.3025 1738.09 83.6454 1740.51 83.3915C1742.97 83.133 1745.34 83.3037 1747.62 83.9036C1749.9 84.5495 1751.98 85.6134 1753.85 87.0951C1755.73 88.5768 1757.28 90.4651 1758.52 92.76C1759.76 95.101 1760.54 97.8165 1760.86 100.907C1761.19 103.997 1760.99 106.792 1760.25 109.294C1759.52 111.796 1758.39 113.966 1756.87 115.805C1755.34 117.644 1753.53 119.117 1751.43 120.223C1749.33 121.33 1747.05 122.013 1744.59 122.271C1742.18 122.525 1739.83 122.329 1737.55 121.683C1735.26 121.037 1733.19 119.973 1731.31 118.491C1729.44 117.01 1727.88 115.121 1726.65 112.826C1725.41 110.532 1724.63 107.839 1724.31 104.749ZM1741.7 94.7372C1739.87 94.9299 1738.29 95.445 1736.98 96.2825C1735.67 97.1661 1734.7 98.2475 1734.07 99.5265C1733.43 100.806 1733.2 102.229 1733.36 103.797C1733.52 105.319 1734.04 106.64 1734.93 107.759C1735.87 108.92 1737.06 109.773 1738.52 110.319C1739.98 110.865 1741.61 111.044 1743.4 110.856C1745.23 110.664 1746.8 110.148 1748.12 109.311C1749.43 108.473 1750.4 107.392 1751.03 106.067C1751.66 104.788 1751.9 103.387 1751.74 101.865C1751.58 100.297 1751.05 98.9536 1750.17 97.8344C1749.28 96.7152 1748.1 95.8595 1746.64 95.2672C1745.18 94.7211 1743.53 94.5445 1741.7 94.7372Z" fill="#F04F0A"/>
<path d="M1727.92 150.795L1730.1 159.21L1792.66 97.7852L1790.48 89.3709L1727.92 150.795Z" fill="#F04F0A"/>
</g>
<g opacity="0.8">
<path fill-rule="evenodd" clip-rule="evenodd" d="M8.40665 87.8503C7.60594 85.5349 6.26308 83.2929 4.37808 81.1244C2.49308 78.956 0.473875 77.3304 -1.67952 76.2475C-3.83291 75.1647 -6.01228 74.5591 -8.21764 74.4306C-10.423 74.3021 -12.5618 74.5987 -14.6341 75.3205C-16.7064 76.0423 -18.5898 77.1397 -20.2844 78.6129C-22.0105 80.1133 -23.375 81.8393 -24.3782 83.791C-25.3814 85.7426 -25.9728 87.8193 -26.1525 90.0211C-26.3322 92.2229 -26.0357 94.4653 -25.2631 96.7485C-24.4905 99.0316 -23.1618 101.257 -21.2768 103.426C-19.3917 105.594 -17.3585 107.236 -15.177 108.351C-13.0236 109.434 -10.8442 110.04 -8.63883 110.168C-6.43348 110.297 -4.29466 110 -2.22239 109.278C-0.178255 108.524 1.70682 107.397 3.43284 105.896C5.12747 104.423 6.49043 102.727 7.52174 100.808C8.5249 98.8562 9.11632 96.7795 9.296 94.5777C9.47568 92.3759 9.17924 90.1335 8.40665 87.8503ZM-0.73198 94.2603C-1.28281 95.5914 -2.20155 96.8162 -3.48822 97.9347C-4.77488 99.0532 -6.11565 99.7925 -7.51051 100.153C-8.9335 100.481 -10.2775 100.456 -11.5425 100.078C-12.8075 99.7002 -13.9182 98.9611 -14.8748 97.8607C-15.8032 96.7927 -16.3665 95.606 -16.5645 94.3008C-16.7906 92.9632 -16.6283 91.6288 -16.0774 90.2976C-15.5266 88.9665 -14.6078 87.7417 -13.3212 86.6232C-12.0659 85.532 -10.7408 84.8063 -9.34597 84.4461C-7.95112 84.0859 -6.59143 84.0972 -5.26692 84.48C-4.00193 84.8577 -2.90523 85.5806 -1.97679 86.6486C-1.02022 87.749 -0.442935 88.9519 -0.244938 90.2571C-0.0469405 91.5624 -0.209284 92.8967 -0.73198 94.2603Z" fill="#FF7236"/>
<path fill-rule="evenodd" clip-rule="evenodd" d="M53.6469 93.4842C55.5319 95.6526 56.8748 97.8946 57.6755 100.21C58.4481 102.493 58.7446 104.736 58.5649 106.937C58.3852 109.139 57.7938 111.216 56.7906 113.168C55.7593 115.087 54.3963 116.783 52.7017 118.256C50.9757 119.757 49.0906 120.884 47.0465 121.638C44.9742 122.36 42.8354 122.656 40.63 122.528C38.4247 122.399 36.2453 121.794 34.0919 120.711C31.9104 119.596 29.8771 117.954 27.9921 115.786C26.1071 113.617 24.7783 111.391 24.0057 109.108C23.2332 106.825 22.9367 104.583 23.1164 102.381C23.2961 100.179 23.8875 98.1023 24.8907 96.1507C25.8938 94.199 27.2584 92.473 28.9844 90.9726C30.6791 89.4995 32.5625 88.402 34.6348 87.6802C36.7071 86.9585 38.8459 86.6618 41.0512 86.7903C43.2566 86.9188 45.436 87.5245 47.5893 88.6073C49.7427 89.6901 51.7619 91.3157 53.6469 93.4842ZM45.7806 110.294C47.0673 109.176 47.9861 107.951 48.5369 106.62C49.0596 105.256 49.2219 103.922 49.0239 102.617C48.8259 101.312 48.2486 100.109 47.2921 99.0084C46.3636 97.9403 45.2669 97.2174 44.0019 96.8397C42.6774 96.4569 41.3178 96.4456 39.9229 96.8058C38.528 97.166 37.203 97.8917 35.9477 98.9829C34.661 100.101 33.7423 101.326 33.1914 102.657C32.6406 103.989 32.4783 105.323 32.7044 106.661C32.9024 107.966 33.4656 109.152 34.3941 110.22C35.3506 111.321 36.4614 112.06 37.7264 112.438C38.9914 112.815 40.3354 112.84 41.7584 112.512C43.1532 112.152 44.494 111.413 45.7806 110.294Z" fill="#FF7236"/>
<path d="M26.487 60.5203L20.371 55.304L5.56201 135.015L11.678 140.231L26.487 60.5203Z" fill="#FF7236"/>
</g>
<g opacity="0.8">
<path fill-rule="evenodd" clip-rule="evenodd" d="M1889.84 296.104C1890.7 298.608 1892.16 301.033 1894.2 303.378C1896.23 305.723 1898.42 307.48 1900.75 308.651C1903.07 309.822 1905.43 310.477 1907.82 310.616C1910.2 310.755 1912.51 310.434 1914.75 309.654C1917 308.873 1919.03 307.687 1920.86 306.094C1922.73 304.471 1924.21 302.605 1925.29 300.494C1926.38 298.384 1927.02 296.138 1927.21 293.757C1927.4 291.376 1927.08 288.951 1926.25 286.482C1925.41 284.013 1923.98 281.606 1921.94 279.261C1919.9 276.916 1917.7 275.141 1915.34 273.935C1913.01 272.764 1910.66 272.109 1908.27 271.97C1905.89 271.831 1903.57 272.152 1901.33 272.932C1899.12 273.748 1897.08 274.967 1895.22 276.589C1893.38 278.182 1891.91 280.017 1890.8 282.092C1889.71 284.203 1889.07 286.448 1888.88 288.829C1888.68 291.21 1889 293.635 1889.84 296.104ZM1899.72 289.173C1900.32 287.733 1901.31 286.409 1902.7 285.199C1904.09 283.99 1905.54 283.19 1907.05 282.8C1908.59 282.446 1910.04 282.473 1911.41 282.881C1912.78 283.29 1913.98 284.089 1915.01 285.279C1916.02 286.434 1916.63 287.717 1916.84 289.129C1917.09 290.575 1916.91 292.018 1916.32 293.458C1915.72 294.897 1914.73 296.222 1913.33 297.431C1911.98 298.611 1910.54 299.396 1909.04 299.786C1907.53 300.175 1906.06 300.163 1904.63 299.749C1903.26 299.34 1902.07 298.559 1901.07 297.404C1900.03 296.214 1899.41 294.913 1899.19 293.502C1898.98 292.09 1899.16 290.647 1899.72 289.173Z" fill="#F04F0A"/>
<path fill-rule="evenodd" clip-rule="evenodd" d="M1840.92 290.012C1838.88 287.667 1837.43 285.242 1836.56 282.739C1835.72 280.27 1835.4 277.845 1835.6 275.464C1835.79 273.083 1836.43 270.837 1837.52 268.726C1838.63 266.651 1840.11 264.817 1841.94 263.224C1843.8 261.601 1845.84 260.382 1848.05 259.566C1850.29 258.786 1852.61 258.465 1854.99 258.604C1857.38 258.743 1859.73 259.398 1862.06 260.569C1864.42 261.775 1866.62 263.55 1868.66 265.895C1870.7 268.24 1872.13 270.647 1872.97 273.116C1873.81 275.585 1874.13 278.01 1873.93 280.391C1873.74 282.772 1873.1 285.018 1872.01 287.128C1870.93 289.239 1869.45 291.105 1867.59 292.728C1865.75 294.321 1863.72 295.508 1861.48 296.288C1859.23 297.069 1856.92 297.39 1854.54 297.251C1852.15 297.112 1849.8 296.457 1847.47 295.286C1845.14 294.115 1842.95 292.357 1840.92 290.012ZM1849.42 271.833C1848.03 273.043 1847.04 274.367 1846.44 275.807C1845.88 277.281 1845.7 278.724 1845.92 280.136C1846.13 281.547 1846.75 282.848 1847.79 284.038C1848.79 285.193 1849.98 285.975 1851.35 286.383C1852.78 286.797 1854.25 286.809 1855.76 286.42C1857.27 286.03 1858.7 285.246 1860.06 284.066C1861.45 282.856 1862.44 281.532 1863.04 280.092C1863.63 278.653 1863.81 277.21 1863.56 275.763C1863.35 274.352 1862.74 273.068 1861.74 271.913C1860.7 270.723 1859.5 269.924 1858.13 269.516C1856.76 269.107 1855.31 269.08 1853.77 269.435C1852.26 269.824 1850.81 270.624 1849.42 271.833Z" fill="#F04F0A"/>
<path d="M1870.29 325.659L1876.9 331.3L1892.91 245.101L1886.3 239.46L1870.29 325.659Z" fill="#F04F0A"/>
</g>
<g opacity="0.8">
<path fill-rule="evenodd" clip-rule="evenodd" d="M88.2401 -8.94367C87.8114 -11.3559 86.8358 -13.7804 85.3133 -16.217C83.7907 -18.6536 82.0507 -20.5751 80.0932 -21.9815C78.1357 -23.3878 76.0779 -24.3269 73.9198 -24.7988C71.7617 -25.2707 69.6028 -25.3123 67.4431 -24.9236C65.2834 -24.5349 63.2515 -23.7456 61.3473 -22.5557C59.4078 -21.3438 57.79 -19.8525 56.4939 -18.0818C55.1978 -16.3111 54.2888 -14.3524 53.7669 -12.2059C53.2449 -10.0593 53.187 -7.7981 53.5929 -5.42223C53.9988 -3.04634 54.963 -0.640085 56.4856 1.79654C58.0082 4.23318 59.7596 6.17285 61.7398 7.61556C63.6973 9.02191 65.7551 9.96103 67.9132 10.4329C70.0713 10.9048 72.2302 10.9464 74.3898 10.5577C76.5268 10.1326 78.565 9.31412 80.5045 8.1022C82.4087 6.91231 84.0202 5.4502 85.3391 3.71588C86.6352 1.94518 87.5442 -0.0134466 88.0661 -2.16C88.588 -4.30657 88.646 -6.56779 88.2401 -8.94367ZM78.2112 -4.04228C77.4589 -2.81368 76.3599 -1.74766 74.9141 -0.844232C73.4683 0.0591984 72.0284 0.579691 70.5944 0.717265C69.1376 0.818466 67.8141 0.583585 66.6238 0.0126191C65.4334 -0.558345 64.4519 -1.46208 63.6793 -2.69858C62.9294 -3.89871 62.5587 -5.15885 62.5673 -6.479C62.5532 -7.83552 62.9223 -9.12808 63.6746 -10.3567C64.4269 -11.5853 65.5259 -12.6513 66.9717 -13.5547C68.3823 -14.4361 69.8045 -14.9456 71.2386 -15.0832C72.6726 -15.2207 74.0138 -14.9969 75.2621 -14.4116C76.4524 -13.8406 77.4225 -12.9551 78.1725 -11.7549C78.9451 -10.5184 79.3271 -9.2401 79.3185 -7.91994C79.3099 -6.59979 78.9408 -5.30724 78.2112 -4.04228Z" fill="#FF7236"/>
<path fill-rule="evenodd" clip-rule="evenodd" d="M132.042 3.6978C133.565 6.13443 134.54 8.55888 134.969 10.9711C135.375 13.347 135.317 15.6082 134.795 17.7548C134.273 19.9013 133.364 21.86 132.068 23.6307C130.749 25.365 129.137 26.8271 127.233 28.017C125.294 29.2289 123.256 30.0474 121.119 30.4725C118.959 30.8612 116.8 30.8196 114.642 30.3477C112.484 29.8758 110.426 28.9367 108.469 27.5304C106.488 26.0876 104.737 24.148 103.214 21.7113C101.692 19.2747 100.728 16.8685 100.322 14.4926C99.9158 12.1167 99.9738 9.85546 100.496 7.7089C101.018 5.56234 101.927 3.60372 103.223 1.83302C104.519 0.0623263 106.137 -1.42898 108.076 -2.6409C109.98 -3.83079 112.012 -4.62009 114.172 -5.00881C116.332 -5.39754 118.49 -5.35595 120.649 -4.88404C122.807 -4.41214 124.864 -3.47301 126.822 -2.06666C128.779 -0.660311 130.52 1.26117 132.042 3.6978ZM121.643 19.0706C123.089 18.1671 124.188 17.1011 124.94 15.8725C125.67 14.6076 126.039 13.315 126.047 11.9948C126.056 10.6747 125.674 9.39637 124.901 8.15987C124.151 6.95974 123.181 6.07419 121.991 5.50323C120.743 4.91793 119.401 4.69407 117.967 4.83164C116.533 4.9692 115.111 5.47868 113.701 6.36008C112.255 7.26351 111.156 8.32953 110.403 9.55813C109.651 10.7867 109.282 12.0793 109.296 13.4358C109.288 14.7559 109.658 16.0161 110.408 17.2162C111.181 18.4527 112.162 19.3565 113.353 19.9274C114.543 20.4984 115.866 20.7333 117.323 20.6321C118.757 20.4945 120.197 19.974 121.643 19.0706Z" fill="#FF7236"/>
<path d="M110.373 -33.1088L105.149 -39.2177L78.0523 37.1951L83.277 43.3039L110.373 -33.1088Z" fill="#FF7236"/>
</g>
<g opacity="0.8">
<path fill-rule="evenodd" clip-rule="evenodd" d="M3.43448 15.8874C2.68046 18.2185 2.40366 20.8172 2.60409 23.6834C2.80451 26.5496 3.43879 29.0631 4.50691 31.2238C5.57503 33.3845 6.95106 35.1798 8.63501 36.6096C10.319 38.0395 12.2056 39.0897 14.295 39.7604C16.3844 40.4311 18.549 40.6881 20.789 40.5315C23.0704 40.372 25.1989 39.8147 27.1746 38.8598C29.1503 37.9048 30.8725 36.6022 32.341 34.952C33.8096 33.3017 34.9224 31.3324 35.6794 29.044C36.4364 26.7557 36.7147 24.1784 36.5143 21.3122C36.3138 18.4459 35.6781 15.9111 34.607 13.7076C33.5388 11.5469 32.1628 9.7516 30.4789 8.32176C28.7949 6.89193 26.9083 5.84166 24.8189 5.17098C22.7325 4.54308 20.5486 4.3089 18.2672 4.46843C16.0272 4.62506 13.9179 5.15946 11.9392 6.07161C9.96353 7.02655 8.24141 8.32917 6.77285 9.97944C5.30428 11.6297 4.1915 13.599 3.43448 15.8874ZM14.5905 16.268C15.8315 15.5364 17.3024 15.1111 19.0031 14.9922C20.7038 14.8732 22.2195 15.0897 23.5503 15.6414C24.884 16.236 25.9424 17.0647 26.7253 18.1277C27.5082 19.1907 27.9506 20.4494 28.0523 21.9039C28.151 23.3156 27.8867 24.6023 27.2593 25.7638C26.6349 26.9682 25.7022 27.9362 24.4611 28.6678C23.2201 29.3994 21.7493 29.8247 20.0486 29.9436C18.3894 30.0596 16.8944 29.8417 15.5636 29.29C14.2329 28.7382 13.1538 27.9109 12.3263 26.808C11.5434 25.7451 11.1026 24.5078 11.0039 23.096C10.9021 21.6415 11.165 20.3335 11.7924 19.1719C12.4198 18.0103 13.3525 17.0424 14.5905 16.268Z" fill="#FF7236"/>
<path fill-rule="evenodd" clip-rule="evenodd" d="M-29.3055 -15.8382C-29.506 -18.7044 -29.2292 -21.3031 -28.4751 -23.6342C-27.7181 -25.9226 -26.6053 -27.8919 -25.1368 -29.5422C-23.6682 -31.1924 -21.9461 -32.4951 -19.9704 -33.45C-17.9917 -34.3622 -15.8824 -34.8965 -13.6424 -35.0532C-11.361 -35.2127 -9.17712 -34.9785 -7.09074 -34.3506C-5.00137 -33.6799 -3.11471 -32.6297 -1.43077 -31.1998C0.253177 -29.77 1.62921 -27.9747 2.69733 -25.814C3.76844 -23.6105 4.40421 -21.0757 4.60464 -18.2094C4.80506 -15.3432 4.52677 -12.7659 3.76976 -10.4776C3.01274 -8.18924 1.89996 -6.21993 0.431395 -4.56965C-1.03716 -2.91937 -2.75929 -1.61676 -4.73499 -0.66182C-6.71069 0.29312 -8.83925 0.850357 -11.1207 1.00989C-13.3606 1.16652 -15.5253 0.909495 -17.6146 0.238812C-19.704 -0.431867 -21.5907 -1.48212 -23.2746 -2.91196C-24.9586 -4.3418 -26.3346 -6.13708 -27.4027 -8.29779C-28.4708 -10.4585 -29.1051 -12.972 -29.3055 -15.8382ZM-12.9066 -24.5294C-14.6072 -24.4105 -16.0781 -23.9852 -17.3191 -23.2536C-18.5572 -22.4792 -19.4899 -21.5113 -20.1173 -20.3497C-20.7446 -19.1881 -21.0075 -17.8801 -20.9058 -16.4256C-20.8071 -15.0139 -20.3662 -13.7765 -19.5833 -12.7136C-18.7559 -11.6107 -17.6768 -10.7834 -16.346 -10.2317C-15.0153 -9.67987 -13.5203 -9.462 -11.861 -9.57802C-10.1604 -9.69695 -8.6895 -10.1222 -7.44848 -10.8538C-6.20746 -11.5854 -5.27475 -12.5534 -4.65036 -13.7578C-4.02297 -14.9193 -3.75864 -16.206 -3.85735 -17.6177C-3.95906 -19.0722 -4.40138 -20.3309 -5.18433 -21.3939C-5.96727 -22.4569 -7.02561 -23.2856 -8.35937 -23.8802C-9.69013 -24.4319 -11.2059 -24.6484 -12.9066 -24.5294Z" fill="#FF7236"/>
<path d="M-27.4527 26.8331L-25.7076 34.6798L34.0906 -20.0678L32.3454 -27.9145L-27.4527 26.8331Z" fill="#FF7236"/>
</g>
<g opacity="0.8">
<path fill-rule="evenodd" clip-rule="evenodd" d="M8.83901 203.98C7.61119 201.859 5.86522 199.915 3.60109 198.146C1.33696 196.377 -0.955323 195.166 -3.27576 194.514C-5.5962 193.862 -7.8511 193.684 -10.0405 193.978C-12.2298 194.273 -14.2727 194.972 -16.1692 196.076C-18.0657 197.18 -19.7051 198.617 -21.0875 200.386C-22.4955 202.188 -23.5057 204.143 -24.1181 206.25C-24.7304 208.358 -24.9147 210.509 -24.671 212.705C-24.4272 214.9 -23.7083 217.045 -22.5143 219.139C-21.3203 221.232 -19.5912 223.164 -17.3271 224.933C-15.0629 226.702 -12.7538 227.925 -10.3995 228.604C-8.0791 229.256 -5.82421 229.434 -3.63485 229.14C-1.4455 228.845 0.597423 228.146 2.4939 227.042C4.35658 225.912 5.99193 224.445 7.39994 222.643C8.78235 220.874 9.79663 218.949 10.4428 216.868C11.0551 214.761 11.2394 212.609 10.9957 210.414C10.7519 208.218 10.033 206.073 8.83901 203.98ZM1.09135 212.015C0.804635 213.427 0.136482 214.805 -0.913127 216.148C-1.96273 217.492 -3.1378 218.473 -4.43829 219.093C-5.77259 219.686 -7.09664 219.918 -8.41046 219.789C-9.72429 219.66 -10.9557 219.146 -12.1046 218.248C-13.2198 217.377 -13.9991 216.32 -14.4425 215.076C-14.9197 213.806 -15.015 212.465 -14.7283 211.054C-14.4415 209.642 -13.7734 208.264 -12.7238 206.921C-11.6998 205.61 -10.5375 204.645 -9.23701 204.025C-7.93652 203.405 -6.59966 203.157 -5.22644 203.28C-3.91261 203.41 -2.69812 203.91 -1.58295 204.781C-0.43399 205.679 0.362198 206.749 0.805611 207.993C1.24902 209.236 1.34427 210.577 1.09135 212.015Z" fill="#FF7236"/>
<path fill-rule="evenodd" clip-rule="evenodd" d="M54.3231 200.878C56.5872 202.647 58.3332 204.591 59.561 206.711C60.755 208.805 61.4739 210.95 61.7177 213.145C61.9614 215.341 61.7771 217.492 61.1647 219.6C60.5186 221.68 59.5043 223.605 58.1219 225.375C56.7139 227.177 55.0786 228.643 53.2159 229.774C51.3194 230.878 49.2765 231.577 47.0871 231.872C44.8978 232.166 42.6429 231.988 40.3224 231.335C37.9682 230.657 35.659 229.433 33.3949 227.664C31.1308 225.895 29.4017 223.964 28.2077 221.87C27.0136 219.777 26.2948 217.632 26.051 215.436C25.8073 213.241 25.9916 211.089 26.6039 208.982C27.2163 206.875 28.2264 204.92 29.6344 203.118C31.0169 201.349 32.6563 199.912 34.5528 198.808C36.4493 197.704 38.4922 197.005 40.6815 196.71C42.8709 196.415 45.1258 196.594 47.4462 197.246C49.7667 197.898 52.0589 199.109 54.3231 200.878ZM49.8089 218.88C50.8585 217.537 51.5266 216.159 51.8133 214.747C52.0663 213.309 51.971 211.968 51.5276 210.725C51.0842 209.481 50.288 208.411 49.139 207.513C48.0239 206.642 46.8094 206.141 45.4956 206.012C44.1223 205.889 42.7855 206.137 41.485 206.757C40.1845 207.377 39.0222 208.342 37.9982 209.652C36.9486 210.996 36.2804 212.374 35.9937 213.785C35.707 215.197 35.8023 216.538 36.2795 217.808C36.7229 219.051 37.5022 220.109 38.6173 220.98C39.7663 221.878 40.9977 222.391 42.3115 222.521C43.6253 222.65 44.9494 222.418 46.2837 221.825C47.5842 221.205 48.7592 220.223 49.8089 218.88Z" fill="#FF7236"/>
<path d="M21.3724 173.702L14.3734 169.748L15.046 250.82L22.045 254.774L21.3724 173.702Z" fill="#FF7236"/>
</g>
<g opacity="0.8">
<path fill-rule="evenodd" clip-rule="evenodd" d="M1893.21 170.523C1894.54 172.815 1896.43 174.918 1898.88 176.831C1901.33 178.744 1903.8 180.053 1906.31 180.758C1908.82 181.463 1911.26 181.657 1913.63 181.338C1916 181.019 1918.21 180.263 1920.26 179.069C1922.31 177.875 1924.08 176.322 1925.57 174.408C1927.1 172.46 1928.19 170.346 1928.85 168.067C1929.51 165.788 1929.71 163.462 1929.45 161.087C1929.19 158.713 1928.41 156.394 1927.12 154.13C1925.83 151.866 1923.96 149.777 1921.51 147.864C1919.06 145.951 1916.56 144.628 1914.02 143.894C1911.51 143.189 1909.07 142.996 1906.7 143.315C1904.33 143.633 1902.12 144.389 1900.07 145.583C1898.06 146.806 1896.29 148.391 1894.77 150.34C1893.27 152.253 1892.18 154.335 1891.48 156.585C1890.82 158.864 1890.62 161.191 1890.88 163.565C1891.14 165.939 1891.92 168.259 1893.21 170.523ZM1901.59 161.833C1901.9 160.306 1902.62 158.816 1903.76 157.364C1904.89 155.911 1906.16 154.849 1907.57 154.179C1909.01 153.537 1910.45 153.287 1911.87 153.427C1913.29 153.566 1914.62 154.122 1915.86 155.093C1917.07 156.035 1917.91 157.178 1918.39 158.523C1918.91 159.896 1919.01 161.346 1918.7 162.873C1918.39 164.4 1917.67 165.889 1916.53 167.342C1915.42 168.759 1914.17 169.803 1912.76 170.473C1911.35 171.144 1909.91 171.412 1908.42 171.279C1907 171.139 1905.69 170.598 1904.48 169.656C1903.24 168.685 1902.38 167.527 1901.9 166.183C1901.42 164.838 1901.32 163.388 1901.59 161.833Z" fill="#F04F0A"/>
<path fill-rule="evenodd" clip-rule="evenodd" d="M1844.03 173.877C1841.58 171.964 1839.69 169.861 1838.36 167.569C1837.07 165.305 1836.29 162.985 1836.03 160.611C1835.77 158.237 1835.97 155.91 1836.63 153.631C1837.33 151.381 1838.42 149.299 1839.92 147.386C1841.44 145.437 1843.21 143.852 1845.22 142.629C1847.27 141.435 1849.48 140.679 1851.85 140.361C1854.22 140.042 1856.66 140.235 1859.17 140.94C1861.71 141.674 1864.21 142.997 1866.66 144.91C1869.11 146.823 1870.98 148.912 1872.27 151.176C1873.56 153.44 1874.34 155.759 1874.6 158.134C1874.86 160.508 1874.66 162.834 1874 165.113C1873.34 167.392 1872.25 169.506 1870.72 171.454C1869.23 173.368 1867.46 174.922 1865.41 176.115C1863.35 177.309 1861.15 178.065 1858.78 178.384C1856.41 178.703 1853.97 178.509 1851.46 177.804C1848.95 177.099 1846.47 175.79 1844.03 173.877ZM1848.91 154.41C1847.77 155.862 1847.05 157.352 1846.74 158.879C1846.47 160.434 1846.57 161.884 1847.05 163.229C1847.53 164.573 1848.39 165.731 1849.63 166.702C1850.84 167.644 1852.15 168.185 1853.57 168.325C1855.06 168.458 1856.5 168.19 1857.91 167.519C1859.32 166.849 1860.57 165.805 1861.68 164.388C1862.81 162.935 1863.54 161.446 1863.85 159.919C1864.16 158.392 1864.05 156.942 1863.54 155.569C1863.06 154.224 1862.22 153.081 1861.01 152.139C1859.77 151.168 1858.44 150.613 1857.02 150.473C1855.59 150.333 1854.16 150.583 1852.72 151.225C1851.31 151.895 1850.04 152.957 1848.91 154.41Z" fill="#F04F0A"/>
<path d="M1879.66 203.265L1887.23 207.54L1886.5 119.869L1878.93 115.594L1879.66 203.265Z" fill="#F04F0A"/>
</g>
<g opacity="0.8">
<path fill-rule="evenodd" clip-rule="evenodd" d="M124.164 140.985C126.584 140.598 129.025 139.665 131.488 138.185C133.95 136.706 135.902 134.999 137.342 133.067C138.783 131.134 139.758 129.093 140.267 126.944C140.777 124.794 140.856 122.636 140.505 120.47C140.154 118.304 139.4 116.258 138.244 114.334C137.066 112.373 135.603 110.73 133.855 109.403C132.107 108.076 130.165 107.133 128.028 106.574C125.891 106.015 123.631 105.917 121.248 106.282C118.866 106.646 116.443 107.568 113.98 109.048C111.517 110.528 109.547 112.245 108.07 114.2C106.63 116.132 105.655 118.173 105.145 120.323C104.636 122.472 104.557 124.63 104.908 126.796C105.295 128.94 106.078 130.993 107.256 132.953C108.413 134.878 109.846 136.514 111.557 137.863C113.305 139.19 115.248 140.133 117.385 140.693C119.522 141.252 121.782 141.349 124.164 140.985ZM119.439 130.872C118.223 130.098 117.177 128.981 116.299 127.52C115.421 126.058 114.925 124.61 114.813 123.173C114.737 121.715 114.995 120.396 115.587 119.216C116.178 118.035 117.099 117.07 118.349 116.319C119.562 115.59 120.828 115.241 122.148 115.273C123.505 115.283 124.791 115.674 126.006 116.448C127.221 117.221 128.268 118.339 129.146 119.8C130.003 121.226 130.487 122.657 130.6 124.093C130.712 125.529 130.465 126.866 129.858 128.104C129.266 129.285 128.364 130.239 127.151 130.968C125.901 131.719 124.616 132.078 123.297 132.047C121.977 132.015 120.691 131.624 119.439 130.872Z" fill="#FF8E5E"/>
<path fill-rule="evenodd" clip-rule="evenodd" d="M110.76 184.56C108.297 186.039 105.856 186.973 103.437 187.359C101.054 187.723 98.7946 187.626 96.6574 187.067C94.5203 186.507 92.5778 185.564 90.83 184.238C89.119 182.889 87.6852 181.252 86.5288 179.327C85.3509 177.367 84.5681 175.315 84.1803 173.171C83.8294 171.004 83.9086 168.847 84.4181 166.697C84.9276 164.548 85.9025 162.506 87.3428 160.574C88.8199 158.619 90.7898 156.902 93.2526 155.422C95.7155 153.942 98.1382 153.02 100.521 152.656C102.903 152.291 105.163 152.389 107.3 152.948C109.438 153.507 111.38 154.45 113.128 155.777C114.876 157.104 116.338 158.748 117.516 160.708C118.673 162.633 119.427 164.678 119.777 166.844C120.128 169.01 120.049 171.168 119.54 173.318C119.03 175.467 118.055 177.508 116.615 179.441C115.175 181.374 113.223 183.08 110.76 184.56ZM95.5714 173.894C96.4495 175.355 97.4961 176.473 98.7114 177.246C99.9635 177.998 101.249 178.389 102.569 178.421C103.889 178.453 105.174 178.093 106.424 177.342C107.637 176.613 108.539 175.659 109.131 174.478C109.738 173.241 109.985 171.904 109.872 170.467C109.76 169.031 109.275 167.6 108.419 166.174C107.54 164.713 106.494 163.596 105.279 162.822C104.063 162.048 102.777 161.657 101.421 161.647C100.101 161.616 98.8346 161.964 97.6215 162.693C96.3717 163.444 95.451 164.41 94.8594 165.59C94.2677 166.77 94.0098 168.089 94.0855 169.547C94.198 170.984 94.6933 172.432 95.5714 173.894Z" fill="#FF8E5E"/>
<path d="M147.94 163.536L154.139 158.419L78.2105 129.993L72.0113 135.111L147.94 163.536Z" fill="#FF8E5E"/>
</g>
<g opacity="0.8">
<path fill-rule="evenodd" clip-rule="evenodd" d="M1768.5 238.645C1765.88 239.063 1763.24 240.072 1760.58 241.672C1757.92 243.272 1755.81 245.118 1754.25 247.207C1752.69 249.297 1751.64 251.505 1751.09 253.829C1750.54 256.154 1750.45 258.487 1750.83 260.83C1751.21 263.172 1752.02 265.384 1753.27 267.465C1754.55 269.585 1756.13 271.363 1758.02 272.797C1759.91 274.232 1762.01 275.252 1764.32 275.857C1766.63 276.462 1769.08 276.567 1771.65 276.173C1774.23 275.779 1776.85 274.782 1779.51 273.181C1782.18 271.581 1784.31 269.724 1785.9 267.61C1787.46 265.52 1788.52 263.313 1789.07 260.989C1789.62 258.664 1789.7 256.331 1789.32 253.988C1788.9 251.67 1788.06 249.45 1786.78 247.331C1785.53 245.249 1783.98 243.479 1782.13 242.02C1780.24 240.586 1778.14 239.566 1775.83 238.961C1773.52 238.356 1771.08 238.251 1768.5 238.645ZM1773.61 249.581C1774.92 250.417 1776.06 251.626 1777.01 253.206C1777.96 254.786 1778.49 256.353 1778.61 257.906C1778.69 259.483 1778.42 260.91 1777.78 262.186C1777.14 263.462 1776.14 264.507 1774.79 265.319C1773.48 266.107 1772.11 266.484 1770.68 266.45C1769.21 266.439 1767.82 266.016 1766.51 265.179C1765.19 264.343 1764.06 263.134 1763.11 261.554C1762.19 260.012 1761.66 258.465 1761.54 256.912C1761.42 255.358 1761.69 253.913 1762.34 252.574C1762.98 251.298 1763.96 250.265 1765.27 249.477C1766.62 248.665 1768.01 248.276 1769.44 248.31C1770.87 248.345 1772.26 248.768 1773.61 249.581Z" fill="#F04F0A"/>
<path fill-rule="evenodd" clip-rule="evenodd" d="M1783 191.523C1785.66 189.923 1788.3 188.914 1790.91 188.496C1793.49 188.102 1795.94 188.207 1798.25 188.812C1800.56 189.417 1802.66 190.437 1804.55 191.872C1806.4 193.33 1807.95 195.1 1809.2 197.182C1810.47 199.302 1811.32 201.521 1811.74 203.839C1812.12 206.182 1812.03 208.515 1811.48 210.84C1810.93 213.164 1809.88 215.372 1808.32 217.462C1806.72 219.575 1804.59 221.432 1801.93 223.033C1799.26 224.633 1796.64 225.63 1794.07 226.024C1791.49 226.418 1789.05 226.313 1786.74 225.708C1784.43 225.103 1782.33 224.083 1780.44 222.649C1778.55 221.214 1776.96 219.436 1775.69 217.316C1774.44 215.235 1773.62 213.023 1773.24 210.681C1772.86 208.338 1772.95 206.005 1773.5 203.68C1774.05 201.356 1775.11 199.149 1776.66 197.059C1778.22 194.969 1780.33 193.124 1783 191.523ZM1799.42 203.057C1798.47 201.477 1797.34 200.269 1796.02 199.432C1794.67 198.619 1793.28 198.196 1791.85 198.162C1790.43 198.127 1789.04 198.516 1787.69 199.328C1786.37 200.117 1785.4 201.149 1784.76 202.425C1784.1 203.764 1783.83 205.21 1783.96 206.763C1784.08 208.316 1784.6 209.863 1785.53 211.405C1786.48 212.985 1787.61 214.194 1788.92 215.03C1790.24 215.867 1791.63 216.29 1793.1 216.301C1794.52 216.335 1795.89 215.958 1797.2 215.17C1798.56 214.358 1799.55 213.314 1800.19 212.037C1800.83 210.761 1801.11 209.334 1801.03 207.757C1800.91 206.204 1800.37 204.638 1799.42 203.057Z" fill="#F04F0A"/>
<path d="M1742.79 214.258L1736.09 219.792L1818.19 250.531L1824.9 244.997L1742.79 214.258Z" fill="#F04F0A"/>
</g>
<g opacity="0.8">
<path fill-rule="evenodd" clip-rule="evenodd" d="M-33.9131 320.626C-34.2085 323.058 -33.9844 325.662 -33.2407 328.437C-32.4971 331.212 -31.3948 333.558 -29.9341 335.476C-28.4733 337.393 -26.78 338.893 -24.8541 339.975C-22.9283 341.057 -20.8759 341.728 -18.697 341.988C-16.518 342.247 -14.3441 342.087 -12.1752 341.506C-9.96612 340.914 -7.983 339.961 -6.22581 338.646C-4.46862 337.332 -3.02668 335.725 -1.89999 333.824C-0.773295 331.924 -0.0567182 329.779 0.249751 327.388C0.556217 324.997 0.337631 322.414 -0.406013 319.639C-1.14966 316.864 -2.25742 314.497 -3.7293 312.538C-5.19008 310.621 -6.88339 309.121 -8.80922 308.039C-10.735 306.956 -12.7874 306.285 -14.9664 306.026C-17.1343 305.808 -19.3227 305.994 -21.5318 306.586C-23.7007 307.167 -25.6693 308.094 -27.4376 309.367C-29.1948 310.682 -30.6367 312.289 -31.7634 314.189C-32.8901 316.089 -33.6067 318.235 -33.9131 320.626ZM-22.8895 318.871C-21.8108 317.916 -20.4481 317.218 -18.8014 316.776C-17.1546 316.335 -15.6255 316.258 -14.2139 316.546C-12.7912 316.875 -11.5941 317.487 -10.6228 318.381C-9.65137 319.275 -8.977 320.426 -8.59963 321.834C-8.23335 323.201 -8.24733 324.515 -8.64155 325.775C-9.02467 327.076 -9.75554 328.204 -10.8342 329.159C-11.9128 330.114 -13.2755 330.812 -14.9222 331.253C-16.5288 331.684 -18.0379 331.755 -19.4495 331.468C-20.8611 331.18 -22.0782 330.574 -23.1009 329.649C-24.0722 328.755 -24.7411 327.625 -25.1073 326.258C-25.4847 324.849 -25.4763 323.515 -25.0821 322.255C-24.6878 320.995 -23.957 319.867 -22.8895 318.871Z" fill="#FC6A2C"/>
<path d="M-62.1443 337.264L-58.934 344.633L-10.6808 279.482L-13.8911 272.112L-62.1443 337.264Z" fill="#FC6A2C"/>
</g>
<g opacity="0.8">
<path fill-rule="evenodd" clip-rule="evenodd" d="M1939.44 44.3822C1939.76 41.752 1939.52 38.9364 1938.72 35.9351C1937.91 32.9339 1936.72 30.3967 1935.14 28.3234C1933.56 26.2502 1931.73 24.6283 1929.65 23.458C1927.57 22.2877 1925.35 21.5621 1922.99 21.2813C1920.63 21.0004 1918.28 21.1742 1915.94 21.8027C1913.55 22.4428 1911.4 23.4735 1909.5 24.8949C1907.6 26.3162 1906.04 28.0543 1904.83 30.1092C1903.61 32.164 1902.83 34.4841 1902.5 37.0695C1902.17 39.6548 1902.41 42.4481 1903.21 45.4493C1904.01 48.4505 1905.21 51.0101 1906.8 53.1282C1908.38 55.2015 1910.21 56.8233 1912.3 57.9936C1914.38 59.164 1916.6 59.8896 1918.96 60.1704C1921.3 60.4064 1923.67 60.2044 1926.06 59.5643C1928.4 58.9358 1930.53 57.9333 1932.44 56.5567C1934.34 55.1354 1935.9 53.3973 1937.12 51.3424C1938.34 49.2876 1939.11 46.9675 1939.44 44.3822ZM1927.52 46.2801C1926.36 47.3128 1924.88 48.0677 1923.1 48.5449C1921.32 49.022 1919.67 49.1051 1918.14 48.7939C1916.6 48.438 1915.31 47.7766 1914.26 46.8098C1913.21 45.843 1912.48 44.5981 1912.07 43.0751C1911.67 41.5969 1911.69 40.1766 1912.12 38.8141C1912.53 37.4068 1913.32 36.1868 1914.49 35.1541C1915.65 34.1214 1917.13 33.3664 1918.91 32.8893C1920.65 32.4238 1922.28 32.3466 1923.8 32.6577C1925.33 32.9688 1926.65 33.6244 1927.75 34.6243C1928.8 35.5911 1929.53 36.8136 1929.92 38.2919C1930.33 39.8149 1930.32 41.2576 1929.89 42.6201C1929.47 43.9826 1928.68 45.2026 1927.52 46.2801Z" fill="#F04F0A"/>
<path d="M1969.97 26.3898L1966.5 18.4204L1914.32 88.8752L1917.79 96.8446L1969.97 26.3898Z" fill="#F04F0A"/>
</g>
</svg>
