<svg width="45" height="45" viewBox="0 0 45 45" fill="none" xmlns="http://www.w3.org/2000/svg">
<g clip-path="url(#clip0_2540_9850)">
<path fill-rule="evenodd" clip-rule="evenodd" d="M23.3456 0.688271C23.8405 1.18336 23.8404 1.98596 23.3453 2.48094C23.0454 2.78081 22.8075 3.13683 22.6451 3.52866C22.4828 3.9205 22.3993 4.34048 22.3993 4.76461C22.3993 5.18874 22.4828 5.60871 22.6451 6.00055C22.8075 6.39239 23.0454 6.7484 23.3453 7.04827L23.3458 7.04872C24.4259 8.12964 25.0326 9.59517 25.0326 11.1232C25.0326 12.6513 24.4259 14.1168 23.3458 15.1977C22.8509 15.693 22.0483 15.6933 21.5531 15.1984C21.0579 14.7036 21.0576 13.901 21.5524 13.4058C22.1575 12.8002 22.4974 11.9792 22.4974 11.1232C22.4974 10.2674 22.1577 9.44663 21.5529 8.84115L21.5524 8.8407M21.5524 8.8407C21.0172 8.3055 20.5927 7.67013 20.303 6.97087C20.0132 6.27141 19.8641 5.52171 19.8641 4.76461C19.8641 4.0075 20.0132 3.2578 20.303 2.55834C20.5927 1.85889 21.0175 1.22336 21.5529 0.688064C22.048 0.193091 22.8506 0.193183 23.3456 0.688271M14.3673 3.32444C14.8625 3.81928 14.8628 4.62189 14.368 5.11711C13.7629 5.72263 13.423 6.54363 13.423 7.39964C13.423 8.25566 13.7629 9.07665 14.368 9.68217C15.4481 10.7631 16.0548 12.2286 16.0548 13.7567C16.0548 15.2847 15.4481 16.7503 14.368 17.8312C13.8731 18.3264 13.0705 18.3267 12.5753 17.8319C12.0801 17.337 12.0798 16.5344 12.5746 16.0392C13.1797 15.4337 13.5196 14.6127 13.5196 13.7567C13.5196 12.9007 13.1797 12.0797 12.5746 11.4742C11.4945 10.3932 10.8878 8.9277 10.8878 7.39964C10.8878 5.87158 11.4945 4.40604 12.5746 3.32513C13.0695 2.82991 13.8721 2.8296 14.3673 3.32444ZM32.3261 3.32444C32.8213 3.81928 32.8216 4.62189 32.3268 5.11711C31.7217 5.72263 31.3818 6.54363 31.3818 7.39964C31.3818 8.25566 31.7217 9.07665 32.3268 9.68217C33.4069 10.7631 34.0136 12.2286 34.0136 13.7567C34.0136 15.2847 33.4069 16.7503 32.3268 17.8312C31.8319 18.3264 31.0293 18.3267 30.5341 17.8319C30.0389 17.337 30.0386 16.5344 30.5334 16.0392C31.1385 15.4337 31.4784 14.6127 31.4784 13.7567C31.4784 12.9007 31.1385 12.0797 30.5334 11.4742C29.4533 10.3932 28.8466 8.9277 28.8466 7.39964C28.8466 5.87158 29.4533 4.40604 30.5334 3.32513C31.0283 2.82991 31.8309 2.8296 32.3261 3.32444ZM43.8084 16.3962C44.1061 17.0298 43.8338 17.7848 43.2001 18.0825L28.9079 24.7976C28.2743 25.0953 27.5193 24.823 27.2216 24.1894C26.9238 23.5558 27.1962 22.8008 27.8298 22.5031L42.122 15.7879C42.7557 15.4902 43.5107 15.7625 43.8084 16.3962Z" fill="white"/>
<path fill-rule="evenodd" clip-rule="evenodd" d="M0.951 23.628C0.963236 22.9368 1.52707 22.3828 2.21841 22.3828H42.674C43.3654 22.3828 43.9292 22.9368 43.9415 23.628C43.992 26.4828 43.4733 29.3191 42.4158 31.9713C41.3582 34.6234 39.783 37.0384 37.782 39.0752C36.4238 40.4576 34.888 41.647 33.218 42.6138H35.924C36.6241 42.6138 37.1916 43.1813 37.1916 43.8814C37.1916 44.5815 36.6241 45.149 35.924 45.149H26.3536C25.0679 45.3866 23.7601 45.5071 22.4462 45.5071C21.1323 45.5071 19.8245 45.3866 18.5388 45.149H8.97474C8.27467 45.149 7.70714 44.5815 7.70714 43.8814C7.70714 43.1813 8.27467 42.6138 8.97474 42.6138H11.6744C10.0045 41.647 8.46864 40.4576 7.11048 39.0752C5.10946 37.0384 3.5342 34.6234 2.47665 31.9713C1.41911 29.3191 0.900464 26.4828 0.951 23.628ZM26.114 42.6138H18.7785C17.5247 42.3666 16.2961 41.9928 15.1118 41.4961C12.7892 40.522 10.684 39.095 8.91894 37.2984C7.15389 35.5019 5.76439 33.3717 4.83155 31.0322C4.05272 29.079 3.60524 27.0126 3.50467 24.918H41.3878C41.2872 27.0126 40.8397 29.079 40.0609 31.0322C39.1281 33.3717 37.7386 35.5019 35.9735 37.2984C34.2085 39.095 32.1032 40.522 29.7807 41.4961C28.5964 41.9928 27.3677 42.3666 26.114 42.6138Z" fill="white"/>
</g>
<defs>
<clipPath id="clip0_2540_9850">
<rect width="45" height="45" fill="white"/>
</clipPath>
</defs>
</svg>
