<svg width="206" height="327" viewBox="0 0 206 327" fill="none" xmlns="http://www.w3.org/2000/svg">
<path opacity="0.1" d="M6.22222 7.0545C4.85522 7.0545 3.67223 6.7748 2.67327 6.21538C1.67431 5.65597 0.894418 4.86055 0.333596 3.82913C0.207844 3.59039 0.0966455 3.34136 0 3.08202C0.104676 3.75175 0.293183 4.2124 0.293183 4.2124C1.54058 6.60888 22.9045 70.1278 25.1838 77.1002C28.2229 86.3968 31.9651 93.5862 40.3474 98.8839C49 104.366 54.9505 104.64 59.6625 104.858C64.6703 105.088 68.2793 105.255 72.2464 111.54C73.7102 113.416 181.52 335.937 182.244 338.625L206 342L110.666 158.335C106.666 150.615 102.012 142.312 97.3786 134.046C92.5465 125.425 87.7362 116.843 83.7124 109.002C83.6581 108.883 83.6037 108.765 83.5494 108.646C82.2491 105.811 80.9988 103.085 81.3953 99.0754C81.7332 95.6578 83.2803 93.1288 85.1088 90.1399C87.7503 85.822 90.9791 80.5442 91.9978 70.2406C93.0393 59.7064 89.5306 50.1559 85.6267 44.6011C80.0704 36.6949 67.0933 16.5936 61.0177 7.08523H58.2312V6.79228H50.4007C51.7468 10.8541 61.1865 34.335 63.14 38.5013C63.6026 39.5308 64.1002 40.5606 64.5919 41.5783C67.1177 46.8062 69.4888 51.7138 66.1649 54.6144C60.9611 59.1555 57.8181 51.7655 55.9254 47.3152C55.6516 46.6715 55.404 46.0892 55.18 45.6135C52.2495 39.6761 47.8366 32.427 43.412 25.1585C38.5013 17.0915 33.576 9.00057 30.6466 2.65257C30.6466 2.65257 29.9635 1.23834 28.9171 0C28.9196 0.0953538 28.9209 0.191714 28.9209 0.28908C28.9209 1.67014 28.6405 2.86763 28.0797 3.88157C27.5364 4.89551 26.7652 5.68219 25.7663 6.24161C25.5757 6.34684 25.3785 6.44185 25.1747 6.52665L38.1273 36.2654C39.6507 40.0741 41.2678 43.8011 42.9043 47.5731C43.5407 49.0397 44.18 50.5132 44.8178 52.0009C44.9503 52.3004 45.1155 52.6547 45.3009 53.0525C47.1912 57.1075 51.1848 65.6743 44.0314 66.6272C40.1151 67.1654 37.8809 61.9893 35.5043 56.4834C35.1413 55.6425 34.7751 54.7939 34.399 53.9569C31.1128 46.6541 25.4063 36.3964 19.7889 26.299C15.8913 19.2929 11.3312 11.6604 8.35773 5.84924C7.52079 6.18368 7.27919 7.0545 6.22222 7.0545Z" fill="black"/>
</svg>
