<svg width="229" height="119" viewBox="0 0 229 119" fill="none" xmlns="http://www.w3.org/2000/svg">
<path fill-rule="evenodd" clip-rule="evenodd" d="M56.2319 41.9942C56.2319 44.32 53.778 45.483 53.778 50.3369C53.778 53.2695 55.1877 55.7471 56.5974 57.1123C58.6858 59.1348 64.8468 66.264 66.9353 68.4887C67.4052 68.9944 67.7184 69.3989 68.1361 69.8034L70.4334 72.382C73.0962 72.5843 83.0687 64.4943 83.8518 63.6348C83.3819 63.028 75.6546 47.556 74.7148 45.7358C73.4617 43.3088 72.052 41.4886 69.2326 40.3762C63.2282 37.9998 61.5575 41.2358 58.738 38.202C58.2159 37.747 22.9977 -8.81459 22.6845 -9.52246L18 -6L45.1108 26.9267C48.1913 30.9211 52.2116 35.4717 55.1877 39.365C55.7098 40.1234 56.2319 40.8313 56.2319 41.9942ZM71.8954 57.4662C71.06 56.101 70.1724 54.7864 69.2848 53.4212C68.7105 52.5617 66.622 49.983 69.0759 49.3763C70.4857 49.0223 71.4255 50.8426 72.5219 52.4605C74.9236 55.9999 78.3174 60.5505 80.8236 64.0898C80.3014 64.4438 79.5183 64.5449 78.8917 64.7977C78.213 65.0505 77.7431 65.3033 77.1687 65.5561L71.8954 57.4662ZM71.8954 69.8539C71.6343 69.2472 64.6902 58.9831 63.907 57.8707C62.8106 56.2527 61.2964 54.6853 62.4451 53.5729C64.1681 51.9044 65.5256 54.6347 66.2043 55.5954C68.5538 58.7808 72.5219 63.9887 74.6626 67.073C74.1927 67.6292 73.7228 67.882 73.2529 68.3876L71.8954 69.8539Z" fill="#837258"/>
<path fill-rule="evenodd" clip-rule="evenodd" d="M73.5661 100.949C75.1847 103.225 91.6313 102.871 95.2339 101.556C95.756 101.354 95.9127 101.303 96.0693 100.798C94.503 98.6236 74.4015 98.7247 73.5661 100.949Z" fill="#837258"/>
<path fill-rule="evenodd" clip-rule="evenodd" d="M95.5937 100.368C95.8307 100.488 96.0101 100.62 96.1155 100.766L96.1311 100.788L96.1232 100.813C96.0438 101.07 95.9614 101.221 95.8249 101.332C95.6992 101.435 95.5307 101.5 95.2945 101.591C95.2815 101.596 95.2682 101.602 95.2548 101.607L95.2537 101.607C94.3451 101.939 92.6347 102.208 90.5611 102.39C88.4854 102.573 86.0394 102.669 83.6555 102.654C81.272 102.638 78.9489 102.51 77.1195 102.243C76.2049 102.11 75.4118 101.941 74.7955 101.734C74.1822 101.528 73.7329 101.28 73.5196 100.98L73.5031 100.957L73.513 100.931C73.5713 100.776 73.7104 100.637 73.9084 100.511C74.1072 100.386 74.3715 100.27 74.6902 100.163C75.3277 99.9503 76.1915 99.7717 77.2061 99.6273C79.2361 99.3385 81.8788 99.1851 84.5432 99.1693C87.2076 99.1535 89.8959 99.2752 92.0169 99.5371C93.0772 99.6681 93.9976 99.8342 94.7029 100.036C95.0555 100.137 95.3559 100.248 95.5937 100.368ZM73.6299 100.942C73.8286 101.201 74.2404 101.432 74.8325 101.631C75.4395 101.835 76.225 102.002 77.1362 102.135C78.9583 102.401 81.2756 102.529 83.6563 102.544C86.0368 102.56 88.4791 102.464 90.5509 102.282C92.6245 102.099 94.3206 101.831 95.2134 101.505C95.2136 101.505 95.2138 101.505 95.214 101.505L95.2398 101.495C95.4887 101.399 95.6409 101.34 95.7523 101.249C95.8599 101.161 95.9328 101.04 96.0071 100.808C95.9142 100.69 95.7585 100.575 95.5414 100.465C95.3123 100.349 95.0194 100.241 94.6708 100.141C93.9738 99.9413 93.0602 99.7761 92.0026 99.6455C89.888 99.3844 87.205 99.2628 84.5439 99.2785C81.8827 99.2943 79.2455 99.4475 77.2225 99.7354C76.2107 99.8794 75.3548 100.057 74.727 100.267C74.413 100.371 74.1582 100.484 73.9701 100.603C73.7944 100.714 73.682 100.828 73.6299 100.942Z" fill="#837258"/>
<path fill-rule="evenodd" clip-rule="evenodd" d="M78.1068 88.256C80.0295 89.0289 82.2062 89.4154 84.6368 89.4154C87.0674 89.4154 89.2259 89.0289 91.1123 88.256C92.9988 87.4831 94.595 86.4292 95.901 85.0942C97.207 83.7592 98.2046 82.231 98.8939 80.5095C99.5832 78.7881 99.9278 76.9788 99.9278 75.0817C99.9278 73.1495 99.5832 71.3226 98.8939 69.6012C98.2046 67.8797 97.207 66.3515 95.901 65.0165C94.595 63.6815 92.9988 62.6275 91.1123 61.8547C89.2259 61.0818 87.0674 60.6953 84.6368 60.6953C82.2062 60.6953 80.0295 61.0818 78.1068 61.8547C76.2203 62.6275 74.6241 63.6815 73.3181 65.0165C72.0121 66.3515 71.0145 67.8797 70.3252 69.6012C69.6722 71.3226 69.3457 73.1495 69.3457 75.0817C69.3457 76.9788 69.6722 78.7881 70.3252 80.5095C71.0145 82.231 72.0121 83.7592 73.3181 85.0942C74.6241 86.4292 76.2203 87.4831 78.1068 88.256ZM79.0863 78.8759C78.5421 77.7868 78.27 76.5221 78.27 75.0817C78.27 73.6413 78.5421 72.3766 79.0863 71.2875C79.6667 70.1984 80.4286 69.3552 81.3718 68.758C82.315 68.1608 83.4033 67.8622 84.6368 67.8622C85.8339 67.8622 86.9041 68.1608 87.8473 68.758C88.8268 69.3552 89.5887 70.1984 90.1328 71.2875C90.677 72.3766 90.9491 73.6413 90.9491 75.0817C90.9491 76.487 90.677 77.7341 90.1328 78.8232C89.5887 79.9123 88.8268 80.773 87.8473 81.4054C86.9041 82.0026 85.8339 82.3012 84.6368 82.3012C83.4033 82.3012 82.315 82.0026 81.3718 81.4054C80.4286 80.8081 79.6667 79.965 79.0863 78.8759Z" fill="#EF4D08"/>
<path d="M115.034 88.5304L122.489 99.5968H131.74L120.584 83.8403L130.869 71.9307H121.673L111.987 83.366V61.1278H103.28V99.5968H111.987V91.5341L115.034 88.5304Z" fill="#EF4D08"/>
<path d="M1.3276 73.8805C0.456938 76.0587 0.0216064 78.2896 0.0216064 80.5731C0.0216064 82.962 0.475077 85.3159 1.38202 87.6345C2.32524 89.9181 3.63123 91.9909 5.3 93.8528C7.00505 95.6797 9.01846 97.1552 11.3402 98.2794C13.6983 99.3685 16.274 99.913 19.0674 99.913C21.2078 99.913 23.3663 99.5793 25.5429 98.9118C27.7559 98.2092 29.733 97.2079 31.4743 95.908C33.2157 94.6082 34.4672 93.0448 35.2291 91.218L27.9373 87.0549C27.4294 88.2845 26.6857 89.2857 25.7062 90.0586C24.763 90.7964 23.7291 91.3409 22.6044 91.6922C21.4798 92.0436 20.3734 92.2192 19.285 92.2192C17.7614 92.2192 16.3647 91.9206 15.095 91.3234C13.8253 90.691 12.7369 89.8478 11.83 88.7939C10.9593 87.7399 10.2882 86.5279 9.81657 85.1578C9.34496 83.7876 9.10916 82.3648 9.10916 80.8893C9.10916 79.5543 9.30868 78.2193 9.70774 76.8843C10.1068 75.5493 10.7235 74.3372 11.5579 73.2482C12.3923 72.1591 13.4443 71.2984 14.7141 70.666C15.9838 69.9985 17.4712 69.6648 19.1762 69.6648C20.2283 69.6648 21.3166 69.8228 22.4412 70.139C23.6021 70.4201 24.6541 70.9295 25.5973 71.6672C26.5768 72.405 27.3568 73.4414 27.9373 74.7764L34.7937 70.139C33.4877 67.7149 31.4925 65.7476 28.8079 64.2369C26.1597 62.7263 23.0216 61.9709 19.3939 61.9709C16.3466 61.9709 13.6257 62.5155 11.2314 63.6046C8.83708 64.6585 6.80553 66.0813 5.13676 67.873C3.46798 69.6648 2.19827 71.6672 1.3276 73.8805Z" fill="#EF4D08"/>
<path fill-rule="evenodd" clip-rule="evenodd" d="M53.1003 98.8182C50.6697 98.8182 48.493 98.4318 46.5703 97.6589C44.6839 96.886 43.0877 95.8321 41.7817 94.4971C40.4757 93.1621 39.478 91.6338 38.7888 89.9124C38.1358 88.1909 37.8093 86.3817 37.8093 84.4846C37.8093 82.5523 38.1358 80.7255 38.7888 79.004C39.478 77.2826 40.4757 75.7544 41.7817 74.4194C43.0877 73.0844 44.6839 72.0304 46.5703 71.2575C48.493 70.4846 50.6697 70.0982 53.1003 70.0982C55.5309 70.0982 57.6894 70.4846 59.5759 71.2575C61.4623 72.0304 63.0585 73.0844 64.3645 74.4194C65.6705 75.7544 66.6681 77.2826 67.3574 79.004C68.0467 80.7255 68.3913 82.5523 68.3913 84.4846C68.3913 86.3817 68.0467 88.1909 67.3574 89.9124C66.6681 91.6338 65.6705 93.1621 64.3645 94.4971C63.0585 95.8321 61.4623 96.886 59.5759 97.6589C57.6894 98.4318 55.5309 98.8182 53.1003 98.8182ZM46.7336 84.4846C46.7336 85.925 47.0056 87.1897 47.5498 88.2788C48.1302 89.3679 48.8921 90.211 49.8353 90.8082C50.7785 91.4055 51.8668 91.7041 53.1003 91.7041C54.2974 91.7041 55.3676 91.4055 56.3109 90.8082C57.2904 90.1759 58.0522 89.3152 58.5964 88.2261C59.1405 87.137 59.4126 85.8898 59.4126 84.4846C59.4126 83.0442 59.1405 81.7794 58.5964 80.6904C58.0522 79.6013 57.2904 78.7581 56.3109 78.1609C55.3676 77.5636 54.2974 77.265 53.1003 77.265C51.8668 77.265 50.7785 77.5636 49.8353 78.1609C48.8921 78.7581 48.1302 79.6013 47.5498 80.6904C47.0056 81.7794 46.7336 83.0442 46.7336 84.4846Z" fill="#EF4D08"/>
<path fill-rule="evenodd" clip-rule="evenodd" d="M205.352 98.8139C207.346 99.6153 209.603 100.016 212.123 100.016C214.644 100.016 216.882 99.6153 218.838 98.8139C220.794 98.0125 222.449 96.9196 223.803 95.5353C225.158 94.151 226.192 92.5663 226.907 90.7813C227.622 88.9963 227.979 87.1202 227.979 85.153C227.979 83.1494 227.622 81.2551 226.907 79.4701C226.192 77.6851 225.158 76.1004 223.803 74.7161C222.449 73.3318 220.794 72.2389 218.838 71.4375C216.882 70.6361 214.644 70.2354 212.123 70.2354C209.603 70.2354 207.346 70.6361 205.352 71.4375C203.396 72.2389 201.741 73.3318 200.387 74.7161C199.032 76.1004 197.998 77.6851 197.283 79.4701C196.606 81.2551 196.268 83.1494 196.268 85.153C196.268 87.1202 196.606 88.9963 197.283 90.7813C197.998 92.5663 199.032 94.151 200.387 95.5353C201.741 96.9196 203.396 98.0125 205.352 98.8139ZM206.368 89.0874C205.804 87.9581 205.521 86.6466 205.521 85.153C205.521 83.6594 205.804 82.348 206.368 81.2187C206.97 80.0894 207.76 79.2151 208.738 78.5958C209.716 77.9765 210.844 77.6669 212.123 77.6669C213.365 77.6669 214.474 77.9765 215.452 78.5958C216.468 79.2151 217.258 80.0894 217.822 81.2187C218.387 82.348 218.669 83.6594 218.669 85.153C218.669 86.6102 218.387 87.9034 217.822 89.0327C217.258 90.162 216.468 91.0545 215.452 91.7103C214.474 92.3295 213.365 92.6392 212.123 92.6392C210.844 92.6392 209.716 92.3295 208.738 91.7103C207.76 91.091 206.97 90.2167 206.368 89.0874Z" fill="#837258"/>
<path fill-rule="evenodd" clip-rule="evenodd" d="M177.096 100.378C174.576 100.378 172.319 99.9773 170.325 99.1758C168.369 98.3744 166.714 97.2815 165.36 95.8972C164.005 94.5129 162.971 92.9283 162.256 91.1432C161.579 89.3582 161.24 87.4821 161.24 85.515C161.24 83.5114 161.579 81.6171 162.256 79.832C162.971 78.047 164.005 76.4624 165.36 75.0781C166.714 73.6938 168.369 72.6009 170.325 71.7994C172.319 70.998 174.576 70.5973 177.096 70.5973C179.617 70.5973 181.855 70.998 183.811 71.7994C185.767 72.6009 187.422 73.6938 188.776 75.0781C190.131 76.4624 191.165 78.047 191.88 79.832C192.595 81.6171 192.952 83.5114 192.952 85.515C192.952 87.4821 192.595 89.3582 191.88 91.1432C191.165 92.9283 190.131 94.5129 188.776 95.8972C187.422 97.2815 185.767 98.3744 183.811 99.1758C181.855 99.9773 179.617 100.378 177.096 100.378ZM170.494 85.515C170.494 87.0086 170.776 88.32 171.341 89.4493C171.943 90.5786 172.733 91.4529 173.711 92.0722C174.689 92.6915 175.817 93.0011 177.096 93.0011C178.338 93.0011 179.447 92.6915 180.425 92.0722C181.441 91.4165 182.231 90.524 182.795 89.3947C183.359 88.2654 183.642 86.9721 183.642 85.515C183.642 84.0214 183.359 82.7099 182.795 81.5806C182.231 80.4513 181.441 79.577 180.425 78.9577C179.447 78.3385 178.338 78.0288 177.096 78.0288C175.817 78.0288 174.689 78.3385 173.711 78.9577C172.733 79.577 171.943 80.4513 171.341 81.5806C170.776 82.7099 170.494 84.0214 170.494 85.515Z" fill="#837258"/>
<path d="M159.663 81.9885H150.839V102.517H142.329V81.9885H133.453V74.6065H159.663V81.9885Z" fill="#837258"/>
<path fill-rule="evenodd" clip-rule="evenodd" d="M58.0232 113.49C58.0232 112.039 58.4256 110.903 59.2306 110.084C60.0355 109.261 61.0745 108.849 62.3476 108.849C63.1812 108.849 63.9328 109.042 64.6022 109.428C65.2716 109.814 65.7808 110.352 66.1299 111.044C66.483 111.732 66.6596 112.514 66.6596 113.389C66.6596 114.276 66.4748 115.069 66.1052 115.769C65.7356 116.469 65.212 117 64.5344 117.362C63.8568 117.72 63.1258 117.899 62.3414 117.899C61.4913 117.899 60.7316 117.7 60.0622 117.302C59.3928 116.905 58.8856 116.362 58.5406 115.674C58.1957 114.986 58.0232 114.258 58.0232 113.49ZM59.2552 113.508C59.2552 114.562 59.5468 115.393 60.1299 116.002C60.7172 116.606 61.4523 116.909 62.3352 116.909C63.2346 116.909 63.9738 116.602 64.5529 115.99C65.136 115.377 65.4276 114.508 65.4276 113.383C65.4276 112.671 65.3024 112.051 65.0518 111.522C64.8054 110.989 64.442 110.577 63.9615 110.287C63.4851 109.993 62.9492 109.845 62.3537 109.845C61.5077 109.845 60.7788 110.128 60.1669 110.692C59.5591 111.253 59.2552 112.192 59.2552 113.508Z" fill="#837258"/>
<path d="M51.6737 114.683L52.8687 114.976C52.6182 115.926 52.1665 116.652 51.5135 117.153C50.8646 117.65 50.07 117.899 49.1295 117.899C48.1562 117.899 47.3636 117.708 46.7517 117.326C46.1439 116.94 45.6799 116.384 45.3596 115.656C45.0433 114.928 44.8852 114.146 44.8852 113.311C44.8852 112.401 45.0639 111.607 45.4212 110.931C45.7825 110.251 46.2938 109.736 46.955 109.386C47.6203 109.032 48.3513 108.855 49.148 108.855C50.0515 108.855 50.8112 109.078 51.4273 109.523C52.0433 109.969 52.4724 110.595 52.7147 111.402L51.5381 111.671C51.3287 111.034 51.0248 110.571 50.6264 110.281C50.2281 109.991 49.7271 109.845 49.1234 109.845C48.4293 109.845 47.8482 110.006 47.3801 110.329C46.916 110.651 46.5895 111.084 46.4006 111.629C46.2117 112.17 46.1172 112.729 46.1172 113.305C46.1172 114.049 46.2281 114.699 46.4499 115.256C46.6758 115.809 47.0248 116.222 47.4971 116.497C47.9694 116.771 48.4807 116.909 49.031 116.909C49.7004 116.909 50.2671 116.722 50.7312 116.348C51.1952 115.974 51.5094 115.419 51.6737 114.683Z" fill="#837258"/>
<path fill-rule="evenodd" clip-rule="evenodd" d="M73.0893 110.084C72.2844 110.903 71.8819 112.039 71.8819 113.49C71.8819 114.258 72.0544 114.986 72.3993 115.674C72.7443 116.362 73.2515 116.905 73.9209 117.302C74.5903 117.7 75.35 117.899 76.2001 117.899C76.9845 117.899 77.7155 117.72 78.3931 117.362C79.0707 117 79.5943 116.469 79.9639 115.769C80.3336 115.069 80.5184 114.276 80.5184 113.389C80.5184 112.514 80.3418 111.732 79.9886 111.044C79.6395 110.352 79.1303 109.814 78.4609 109.428C77.7915 109.042 77.04 108.849 76.2063 108.849C74.9332 108.849 73.8942 109.261 73.0893 110.084ZM73.9887 116.002C73.4055 115.393 73.1139 114.562 73.1139 113.508C73.1139 112.192 73.4178 111.253 74.0256 110.692C74.6375 110.128 75.3665 109.845 76.2125 109.845C76.8079 109.845 77.3439 109.993 77.8202 110.287C78.3007 110.577 78.6642 110.989 78.9106 111.522C79.1611 112.051 79.2863 112.671 79.2863 113.383C79.2863 114.508 78.9948 115.377 78.4116 115.99C77.8326 116.602 77.0933 116.909 76.194 116.909C75.311 116.909 74.5759 116.606 73.9887 116.002Z" fill="#837258"/>
<path d="M86.0549 117.75V109.004H87.2499V113.341L91.7345 109.004H93.3546L89.5661 112.548L93.5209 117.75H91.9439L88.7284 113.323L87.2499 114.719V117.75H86.0549Z" fill="#837258"/>
<path d="M98.7678 109.004V117.75H99.9629V109.004H98.7678Z" fill="#837258"/>
<path d="M106.103 117.75V109.004H107.329L112.072 115.871V109.004H113.218V117.75H111.992L107.249 110.877V117.75H106.103Z" fill="#837258"/>
<path d="M123.498 113.293V114.319H126.153V115.948C125.898 116.167 125.524 116.374 125.031 116.568C124.539 116.759 124.034 116.855 123.516 116.855C122.921 116.855 122.358 116.728 121.828 116.473C121.298 116.219 120.894 115.829 120.615 115.304C120.34 114.779 120.202 114.127 120.202 113.347C120.202 112.715 120.317 112.128 120.547 111.587C120.682 111.273 120.871 110.985 121.114 110.722C121.36 110.46 121.682 110.249 122.081 110.09C122.479 109.927 122.951 109.845 123.498 109.845C123.953 109.845 124.368 109.923 124.742 110.078C125.116 110.229 125.403 110.432 125.604 110.686C125.806 110.941 125.974 111.291 126.109 111.736L127.187 111.45C127.031 110.861 126.803 110.384 126.504 110.018C126.204 109.652 125.789 109.368 125.259 109.165C124.734 108.958 124.144 108.855 123.491 108.855C122.592 108.855 121.797 109.034 121.107 109.392C120.418 109.75 119.888 110.299 119.518 111.038C119.153 111.774 118.97 112.568 118.97 113.419C118.97 114.278 119.155 115.055 119.524 115.751C119.894 116.447 120.44 116.98 121.163 117.35C121.89 117.716 122.697 117.899 123.584 117.899C124.241 117.899 124.882 117.785 125.506 117.559C126.13 117.328 126.736 116.986 127.323 116.533V113.287L123.498 113.293Z" fill="#837258"/>
<path d="M145.386 114.683L146.581 114.976C146.33 115.926 145.879 116.652 145.226 117.153C144.577 117.65 143.782 117.899 142.842 117.899C141.868 117.899 141.076 117.708 140.464 117.326C139.856 116.94 139.392 116.384 139.072 115.656C138.756 114.928 138.597 114.146 138.597 113.311C138.597 112.401 138.776 111.607 139.133 110.931C139.495 110.251 140.006 109.736 140.667 109.386C141.332 109.032 142.063 108.855 142.86 108.855C143.764 108.855 144.523 109.078 145.139 109.523C145.755 109.969 146.185 110.595 146.427 111.402L145.25 111.671C145.041 111.034 144.737 110.571 144.339 110.281C143.94 109.991 143.439 109.845 142.836 109.845C142.142 109.845 141.56 110.006 141.092 110.329C140.628 110.651 140.302 111.084 140.113 111.629C139.924 112.17 139.829 112.729 139.829 113.305C139.829 114.049 139.94 114.699 140.162 115.256C140.388 115.809 140.737 116.222 141.209 116.497C141.682 116.771 142.193 116.909 142.743 116.909C143.413 116.909 143.979 116.722 144.443 116.348C144.907 115.974 145.222 115.419 145.386 114.683Z" fill="#837258"/>
<path d="M152.049 109.004V117.75H157.692V116.718H153.245V109.004H152.049Z" fill="#837258"/>
<path d="M169.087 109.004H170.282V114.057C170.282 114.936 170.179 115.634 169.974 116.151C169.768 116.668 169.397 117.089 168.859 117.416C168.325 117.738 167.623 117.899 166.752 117.899C165.906 117.899 165.214 117.758 164.676 117.475C164.138 117.193 163.754 116.785 163.524 116.252C163.294 115.715 163.179 114.984 163.179 114.057V109.004H164.374V114.051C164.374 114.811 164.446 115.371 164.59 115.733C164.738 116.091 164.988 116.368 165.341 116.563C165.699 116.757 166.134 116.855 166.647 116.855C167.526 116.855 168.152 116.662 168.526 116.276C168.9 115.89 169.087 115.149 169.087 114.051V109.004Z" fill="#837258"/>
<path fill-rule="evenodd" clip-rule="evenodd" d="M176.268 109.004V117.75H179.712C180.287 117.75 180.771 117.702 181.165 117.606C181.564 117.507 181.894 117.362 182.157 117.171C182.42 116.98 182.64 116.71 182.816 116.36C182.997 116.006 183.087 115.624 183.087 115.214C183.087 114.705 182.94 114.264 182.644 113.89C182.352 113.516 181.933 113.252 181.387 113.097C181.81 112.894 182.126 112.627 182.336 112.297C182.545 111.967 182.65 111.615 182.65 111.241C182.65 110.84 182.531 110.456 182.293 110.09C182.059 109.72 181.732 109.448 181.313 109.273C180.899 109.094 180.346 109.004 179.656 109.004H176.268ZM179.416 112.679H177.463V110.036H179.268C179.917 110.036 180.375 110.078 180.642 110.162C180.909 110.241 181.114 110.392 181.258 110.615C181.402 110.834 181.474 111.088 181.474 111.378C181.474 111.685 181.395 111.939 181.239 112.142C181.087 112.345 180.86 112.49 180.556 112.578C180.326 112.645 179.946 112.679 179.416 112.679ZM179.712 116.718H177.463V113.711H179.552C180.126 113.711 180.566 113.761 180.87 113.86C181.178 113.956 181.418 114.125 181.591 114.367C181.763 114.606 181.849 114.888 181.849 115.214C181.849 115.493 181.79 115.739 181.671 115.954C181.552 116.165 181.4 116.326 181.215 116.437C181.03 116.549 180.8 116.628 180.525 116.676C180.369 116.704 180.098 116.718 179.712 116.718Z" fill="#837258"/>
</svg>
