<svg width="263" height="339" viewBox="0 0 263 339" fill="none" xmlns="http://www.w3.org/2000/svg">
<g opacity="0.9" clip-path="url(#clip0_2540_9117)">
<path fill-rule="evenodd" clip-rule="evenodd" d="M88.4758 22.116C88.4758 31.3992 78.6906 36.0408 78.6906 55.4144C78.6906 67.1194 84.3119 77.008 89.9331 82.4568C98.2609 90.5292 122.828 118.984 131.156 127.864C133.029 129.882 134.279 131.496 135.944 133.111L145.105 143.403C155.723 144.21 195.488 111.921 198.611 108.49C196.737 106.068 165.924 44.3149 162.177 37.0498C157.18 27.363 151.559 20.0979 140.316 15.6581C116.374 6.17303 109.712 19.0888 98.4691 6.98029C96.3872 5.164 -18.0974 -147.355 -19.3465 -150.18H-48.4938L44.1303 -38.0231C56.4138 -22.0802 72.4448 -3.91739 84.3119 11.6219C86.3938 14.649 88.4758 17.4743 88.4758 22.116ZM150.934 83.8695C147.603 78.4207 144.064 73.1736 140.524 67.7248C138.234 64.294 129.906 54.0018 139.692 51.5801C145.313 50.1674 149.06 57.4325 153.432 63.8904C163.009 78.017 176.542 96.1799 186.535 110.306C184.454 111.719 181.331 112.123 178.832 113.132C176.126 114.141 174.252 115.15 171.962 116.159L150.934 83.8695ZM150.934 133.313C149.893 130.891 122.203 89.9238 119.08 85.484C114.708 79.0261 108.671 72.77 113.251 68.3302C120.121 61.6705 125.534 72.5682 128.241 76.4026C137.61 89.1165 153.432 109.903 161.968 122.213C160.095 124.433 158.221 125.442 156.347 127.46L150.934 133.313Z" fill="white"/>
<path fill-rule="evenodd" clip-rule="evenodd" d="M175.723 206.617C183.396 209.705 192.082 211.249 201.781 211.249C211.481 211.249 220.095 209.705 227.623 206.617C235.151 203.529 241.521 199.318 246.732 193.983C251.944 188.649 255.925 182.543 258.676 175.665C261.427 168.786 262.802 161.557 262.802 153.977C262.802 146.256 261.427 138.957 258.676 132.079C255.925 125.2 251.944 119.094 246.732 113.76C241.521 108.426 235.151 104.214 227.623 101.126C220.095 98.038 211.481 96.4939 201.781 96.4939C192.082 96.4939 183.396 98.038 175.723 101.126C168.195 104.214 161.825 108.426 156.613 113.76C151.402 119.094 147.42 125.2 144.67 132.079C142.064 138.957 140.761 146.256 140.761 153.977C140.761 161.557 142.064 168.786 144.67 175.665C147.42 182.543 151.402 188.649 156.613 193.983C161.825 199.318 168.195 203.529 175.723 206.617ZM179.632 169.137C177.46 164.786 176.374 159.732 176.374 153.977C176.374 148.222 177.46 143.168 179.632 138.817C181.948 134.465 184.988 131.096 188.752 128.71C192.516 126.323 196.859 125.13 201.781 125.13C206.559 125.13 210.83 126.323 214.594 128.71C218.502 131.096 221.543 134.465 223.714 138.817C225.886 143.168 226.971 148.222 226.971 153.977C226.971 159.592 225.886 164.575 223.714 168.927C221.543 173.278 218.502 176.717 214.594 179.244C210.83 181.63 206.559 182.824 201.781 182.824C196.859 182.824 192.516 181.63 188.752 179.244C184.988 176.858 181.948 173.489 179.632 169.137Z" fill="white"/>
<path fill-rule="evenodd" clip-rule="evenodd" d="M61.1728 309.402C51.4732 309.402 42.787 307.858 35.1142 304.77C27.5861 301.682 21.2163 297.471 16.0046 292.136C10.7928 286.802 6.81167 280.696 4.06104 273.818C1.45518 266.939 0.152252 259.71 0.152252 252.13C0.152252 244.409 1.45518 237.11 4.06104 230.232C6.81167 223.353 10.7928 217.247 16.0046 211.913C21.2163 206.579 27.5861 202.368 35.1142 199.279C42.787 196.191 51.4732 194.647 61.1728 194.647C70.8723 194.647 79.4862 196.191 87.0142 199.279C94.5422 202.368 100.912 206.579 106.124 211.913C111.336 217.247 115.317 223.353 118.067 230.232C120.818 237.11 122.193 244.409 122.193 252.13C122.193 259.71 120.818 266.939 118.067 273.818C115.317 280.696 111.336 286.802 106.124 292.136C100.912 297.471 94.5422 301.682 87.0142 304.77C79.4862 307.858 70.8723 309.402 61.1728 309.402ZM35.7656 252.13C35.7656 257.885 36.8514 262.939 39.023 267.29C41.3393 271.642 44.3794 275.011 48.1435 277.397C51.9075 279.784 56.2506 280.977 61.1728 280.977C65.9502 280.977 70.2209 279.784 73.9849 277.397C77.8937 274.871 80.9338 271.431 83.1054 267.08C85.2769 262.728 86.3627 257.745 86.3627 252.13C86.3627 246.375 85.2769 241.321 83.1054 236.97C80.9338 232.618 77.8937 229.249 73.9849 226.863C70.2209 224.476 65.9502 223.283 61.1728 223.283C56.2506 223.283 51.9075 224.476 48.1435 226.863C44.3794 229.249 41.3393 232.618 39.023 236.97C36.8514 241.321 35.7656 246.375 35.7656 252.13Z" fill="white"/>
<path d="M205.31 313.211L232.146 309.182L61.8579 94.9115L35.0224 98.9407L205.31 313.211Z" fill="white"/>
</g>
<defs>
<clipPath id="clip0_2540_9117">
<rect width="263" height="497" fill="white" transform="translate(0 -150)"/>
</clipPath>
</defs>
</svg>
