<svg width="58" height="60" viewBox="0 0 58 60" fill="none" xmlns="http://www.w3.org/2000/svg">
<g opacity="0.9" clip-path="url(#clip0_2588_1491)">
<path d="M27.989 5.61013L7.34021 41.1602C6.70677 42.2508 7.07691 43.6425 8.16676 44.2679L27.9039 55.5947C28.9937 56.2202 30.3913 55.843 31.0247 54.7524L51.6736 19.2023C52.307 18.1117 51.9369 16.7201 50.847 16.0946L31.1099 4.76781C30.02 4.14235 28.6225 4.51956 27.989 5.61013ZM44.192 16.2254C42.9247 18.4072 43.6648 21.1895 45.8451 22.4408L30.9321 48.1159C28.7517 46.8646 25.9576 47.6187 24.6903 49.8005L14.8218 44.1371C16.089 41.9553 15.349 39.173 13.1687 37.9217L28.0817 12.2467C30.262 13.4979 33.0562 12.7438 34.3234 10.562L44.192 16.2254Z" fill="#EF4D08"/>
<path d="M33.9089 35.0295L31.9329 33.8955L31.2681 35.0401L30.2665 34.4653L30.9314 33.3207L29.8216 32.6838L29.1568 33.8284L28.1552 33.2537L28.8201 32.1091L24.3674 29.5538L26.2367 26.3354C26.6382 25.6441 27.0945 25.1279 27.6054 24.7868C28.1216 24.4366 28.6576 24.2594 29.2134 24.2552C29.7744 24.2421 30.3347 24.396 30.8941 24.717C31.4535 25.0381 31.8587 25.4382 32.1097 25.9174C32.3607 26.3966 32.4589 26.9317 32.4043 27.5228C32.3406 28.1087 32.1159 28.7338 31.73 29.3982L30.8306 30.9467L31.9403 31.5836L33.1996 29.4156L34.2011 29.9904L32.9419 32.1584L34.9178 33.2924L33.9089 35.0295ZM29.8134 30.3989L30.5877 29.0658C30.9267 28.4823 31.0539 27.9628 30.9696 27.5074C30.8904 27.043 30.5847 26.6581 30.0523 26.3526C29.511 26.0419 29.0227 25.9712 28.5876 26.1404C28.1486 26.2955 27.7597 26.6648 27.4208 27.2483L26.6464 28.5814L29.8134 30.3989Z" fill="#EF4D08"/>
</g>
<defs>
<clipPath id="clip0_2588_1491">
<rect width="45.6799" height="39.3644" fill="white" transform="matrix(0.50226 -0.864717 0.867324 0.497744 0.16037 39.6731)"/>
</clipPath>
</defs>
</svg>
