<svg width="45" height="38" viewBox="0 0 45 38" fill="none" xmlns="http://www.w3.org/2000/svg">
<path fill-rule="evenodd" clip-rule="evenodd" d="M29.8437 5.89563C28.5428 2.71142 25.372 0.262024 21.3067 0.262024C18.0545 0.262024 14.8837 2.46648 13.7454 4.50764C7.32232 1.56837 0.655334 6.79374 0.655334 12.9172C0.655334 17.1628 3.17578 20.0205 6.75318 21.8167C6.54304 23.716 6.26772 25.7679 5.9946 27.8035C5.73938 29.7056 5.48608 31.5935 5.2897 33.3289C5.27237 33.4594 5.25319 33.5927 5.23374 33.7279C5.0707 34.8612 4.88852 36.1276 5.61492 37.0029C7.13358 37.369 8.74302 37.3248 10.4093 37.279C10.9732 37.2635 11.5437 37.2479 12.1193 37.2479H31.9576C33.0535 36.73 33.1272 35.5449 33.1917 34.5064C33.2086 34.2351 33.2248 33.9739 33.2585 33.7371C33.6579 30.1274 34.2143 26.1237 34.6963 22.6551L34.722 22.4699C40.6572 22.6332 44.7225 18.7141 44.7225 13.1622C44.7225 5.89563 36.592 1.16014 29.8437 5.89563ZM27.4859 8.26338C27.4859 8.65384 27.3481 8.88293 27.219 9.09765C27.1052 9.28701 26.998 9.46519 26.998 9.73302C27.0872 9.79274 27.1789 9.85488 27.2728 9.91856C27.949 10.3773 28.7431 10.9159 29.5998 11.2027C30.4128 8.75326 33.1772 6.5488 36.5107 7.03868C39.7629 7.44692 41.8768 10.7944 41.6329 13.9786C41.389 16.673 38.8685 19.3673 34.9659 19.4489C35.2098 17.816 35.2911 16.1014 33.7463 16.0198C32.2224 16.0198 31.9838 18.2427 31.7591 20.3365C31.7441 20.4769 31.729 20.6168 31.7137 20.7553C31.5527 21.9273 31.4515 23.0794 31.3608 24.1124C31.2682 25.1662 31.1865 26.0962 31.0633 26.7971H9.22314L9.23301 26.7152C9.53789 24.1843 9.84277 21.6533 10.168 19.204C6.50927 19.0407 3.33839 16.2647 3.74491 12.1008C4.39535 6.46716 12.3632 4.91587 15.2089 9.48808C15.3715 6.38551 17.648 3.69118 20.4937 3.36459C23.8272 2.95636 26.6728 5.07917 27.4859 8.26338ZM30.6193 30.2392C30.6318 30.1256 30.6443 30.0124 30.6568 29.8997C27.099 29.7149 18.7721 29.7625 12.7326 29.797C11.2744 29.8053 9.94957 29.8129 8.85739 29.8162C8.67522 31.3038 8.49015 32.7796 8.29797 34.227H30.0876C30.3128 33.0208 30.4687 31.6059 30.6193 30.2392Z" fill="#EF4D08"/>
</svg>
