<svg width="45" height="45" viewBox="0 0 45 45" fill="none" xmlns="http://www.w3.org/2000/svg">
<g clip-path="url(#clip0_2540_9857)">
<path fill-rule="evenodd" clip-rule="evenodd" d="M24.2206 14.8524C23.6808 14.8249 23.1512 15.0065 22.7419 15.3594C22.7075 15.3891 22.6742 15.4197 22.642 15.4513L25.7303 15.6086C25.7015 15.5739 25.6715 15.54 25.6403 15.507C25.2689 15.1143 24.7604 14.8799 24.2206 14.8524ZM21.0864 13.4393C21.9897 12.6605 23.1584 12.2598 24.3496 12.3205C25.5407 12.3811 26.6627 12.8985 27.4822 13.765C28.3017 14.6315 28.7558 15.7805 28.75 16.9732C28.7483 17.3195 28.605 17.65 28.3534 17.888C28.1018 18.126 27.7638 18.2506 27.418 18.233L20.6965 17.8908C20.3506 17.8731 20.027 17.7148 19.8009 17.4525C19.5748 17.1902 19.4658 16.8468 19.4993 16.5021C19.6147 15.3151 20.1831 14.2181 21.0864 13.4393ZM5.66877 13.4744L5.26447 14.6758L4.04964 15.0378C3.91444 14.5841 4.04338 14.0928 4.38397 13.7639C4.72457 13.4351 5.22005 13.3234 5.66877 13.4744ZM13.013 19.6755C14.1246 20.8291 14.3756 22.2586 14.0878 23.0298C13.843 23.6857 14.1762 24.4158 14.8321 24.6606C15.488 24.9054 16.2182 24.5722 16.463 23.9163C17.1828 21.9875 16.4262 19.5637 14.8381 17.9159L14.8378 17.9156C14.2564 17.3128 13.3424 16.7543 12.4366 16.2775C11.4959 15.7823 10.4276 15.3064 9.43428 14.8953C8.43765 14.483 7.49855 14.1286 6.80967 13.8776C6.46474 13.752 6.18136 13.6518 5.98342 13.5828C5.88443 13.5482 5.80673 13.5215 5.75331 13.5032C5.7266 13.4941 5.70595 13.487 5.69174 13.4822L5.66877 13.4744C5.66863 13.4744 5.66877 13.4744 5.26447 14.6758C4.04964 15.0378 4.0496 15.0377 4.04964 15.0378L4.0566 15.061C4.06092 15.0754 4.06721 15.0963 4.07541 15.1233C4.09181 15.1773 4.11582 15.2559 4.14684 15.356C4.20886 15.5562 4.299 15.843 4.41242 16.1921C4.63893 16.8894 4.95983 17.8405 5.33629 18.851C5.71151 19.8583 6.14855 20.9426 6.60859 21.9001C7.05156 22.8221 7.57486 23.7546 8.15246 24.3568C8.63706 24.8621 9.43949 24.8788 9.94474 24.3942C10.45 23.9096 10.4667 23.1072 9.98211 22.6019C9.70407 22.312 9.3242 21.6981 8.89372 20.8022C8.4803 19.9417 8.07358 18.9367 7.71201 17.966C7.55716 17.5504 7.4118 17.1443 7.27898 16.7628C7.6552 16.9089 8.05548 17.0685 8.46498 17.2379C9.42179 17.6338 10.4112 18.0763 11.2557 18.5209C12.1349 18.9836 12.7336 19.386 13.0127 19.6752M37.5432 19.1366C37.2764 19.048 36.9946 19.013 36.7142 19.0337C36.5987 19.0422 36.4843 19.0601 36.3723 19.0871L39.0057 21.3942C39.0148 21.2812 39.0154 21.167 39.0071 21.0526C38.9649 20.4728 38.6984 19.9324 38.2644 19.5459C38.0531 19.3636 37.8081 19.2246 37.5432 19.1366ZM36.5276 16.5054C37.1414 16.4601 37.7581 16.5366 38.3421 16.7306C38.9262 16.9245 39.4662 17.232 39.9309 17.6354L39.9403 17.6437C40.8727 18.4692 41.4453 19.6266 41.5356 20.8687C41.6259 22.1107 41.2269 23.3388 40.4237 24.2906C40.2043 24.5506 39.8895 24.7115 39.5502 24.737C39.2109 24.7626 38.8756 24.6507 38.6197 24.4265L33.4542 19.9011C32.9316 19.4433 32.8749 18.6502 33.3271 18.1227C33.7276 17.6554 34.2166 17.272 34.7659 16.9944C35.3151 16.7169 35.9139 16.5507 36.5276 16.5054Z" fill="white"/>
<path fill-rule="evenodd" clip-rule="evenodd" d="M16.5949 9.57587L15.6844 10.4578L14.4389 10.222C14.527 9.75682 14.8669 9.3795 15.3205 9.24358C15.774 9.10766 16.2654 9.23581 16.5949 9.57587ZM19.914 24.5796C21.2731 24.1732 22.1897 23.0943 22.644 21.8595C23.0983 20.6249 23.1304 19.158 22.7046 17.7324C22.4648 16.9294 21.9089 16.0132 21.3228 15.1736C20.7141 14.3016 19.9832 13.3882 19.2891 12.5669C18.5927 11.743 17.9208 10.997 17.4237 10.4578C17.1749 10.1878 16.969 9.96873 16.8248 9.81655C16.7526 9.74043 16.6959 9.681 16.6568 9.64023C16.6372 9.61985 16.6221 9.60413 16.6117 9.59332L16.5949 9.57587C16.5947 9.57576 16.5949 9.57587 15.6844 10.4578C14.4389 10.222 14.4389 10.2219 14.4389 10.222L14.4344 10.2458C14.4317 10.2606 14.4277 10.282 14.4226 10.3098C14.4123 10.3654 14.3976 10.4462 14.3792 10.5495C14.3425 10.7559 14.291 11.0521 14.2317 11.4145C14.1131 12.1382 13.9621 13.1308 13.8336 14.2019C13.7055 15.2695 13.5973 16.4342 13.5683 17.497C13.5404 18.5201 13.5797 19.5904 13.8206 20.3925M16.5173 13.2371C16.7844 13.5396 17.0668 13.865 17.3529 14.2035C18.0214 14.9945 18.6976 15.8419 19.244 16.6247C19.813 17.4398 20.1603 18.0725 20.2754 18.4579C20.5595 19.409 20.5124 20.311 20.2647 20.9841C20.2458 21.0355 20.2259 21.0852 20.2052 21.1331L19.3515 18.2828C19.1506 17.6122 18.4441 17.2314 17.7735 17.4323C17.1028 17.6331 16.722 18.3396 16.9229 19.0103L17.7763 21.8594C17.7328 21.8309 17.6892 21.8005 17.6454 21.7681C17.069 21.3423 16.5342 20.6152 16.2489 19.664L16.2487 19.6636C16.1332 19.2789 16.0755 18.5597 16.1026 17.566C16.1286 16.6119 16.2273 15.5323 16.3507 14.504C16.4036 14.0639 16.4604 13.6368 16.5173 13.2371ZM19.912 24.5802C18.5542 24.9854 17.1969 24.5888 16.139 23.8072C15.081 23.0257 14.2484 21.8183 13.8207 20.3929M19.912 24.5802C19.9125 24.58 19.9131 24.5799 19.9136 24.5797L19.912 24.5802Z" fill="white"/>
<path fill-rule="evenodd" clip-rule="evenodd" d="M29.2891 18.0032C27.8384 18.0032 26.4472 18.5795 25.4214 19.6053C24.3957 20.631 23.8194 22.0223 23.8194 23.4729C23.8194 24.173 23.2519 24.7406 22.5518 24.7406C21.8517 24.7406 21.2842 24.173 21.2842 23.4729C21.2842 21.3499 22.1276 19.3138 23.6288 17.8126C25.13 16.3114 27.1661 15.468 29.2891 15.468C31.4121 15.468 33.4482 16.3114 34.9494 17.8126C36.4507 19.3138 37.294 21.3499 37.294 23.4729C37.294 24.173 36.7265 24.7406 36.0264 24.7406C35.3264 24.7406 34.7588 24.173 34.7588 23.4729C34.7588 22.0223 34.1826 20.631 33.1568 19.6053C32.131 18.5795 30.7398 18.0032 29.2891 18.0032ZM26.0309 20.2579C26.5253 19.7623 27.3279 19.7614 27.8235 20.2559L29.2337 21.6629C29.239 21.6682 29.2443 21.6736 29.2495 21.6789C29.2547 21.6736 29.26 21.6682 29.2653 21.6629L30.6755 20.2559C31.1711 19.7614 31.9737 19.7623 32.4681 20.2579C32.9626 20.7535 32.9617 21.5561 32.4661 22.0506L31.0559 23.4576C30.5603 23.9521 29.7577 23.9512 29.2632 23.4556C29.2586 23.451 29.254 23.4463 29.2495 23.4416C29.245 23.4463 29.2404 23.451 29.2357 23.4556C28.7413 23.9512 27.9387 23.9521 27.4431 23.4576L26.0329 22.0506C25.5373 21.5561 25.5364 20.7535 26.0309 20.2579Z" fill="white"/>
<path fill-rule="evenodd" clip-rule="evenodd" d="M7.8092 43.7451C7.8092 43.0451 8.37673 42.4775 9.07681 42.4775H36.0261C36.7262 42.4775 37.2937 43.0451 37.2937 43.7451C37.2937 44.4452 36.7262 45.0127 36.0261 45.0127H9.07681C8.37673 45.0127 7.8092 44.4452 7.8092 43.7451Z" fill="white"/>
<path fill-rule="evenodd" clip-rule="evenodd" d="M1.19842 16.2059C1.50325 15.5757 2.26126 15.3119 2.89149 15.6168L16.7749 22.3319C17.4052 22.6367 17.669 23.3947 17.3641 24.025C17.0593 24.6552 16.3013 24.919 15.6711 24.6142L1.78761 17.899C1.15738 17.5942 0.893589 16.8362 1.19842 16.2059Z" fill="white"/>
<path fill-rule="evenodd" clip-rule="evenodd" d="M1.44329 22.5988C1.68102 22.3611 2.00344 22.2275 2.33963 22.2275H42.7636C43.4636 22.2275 44.0312 22.7951 44.0312 23.4951C44.0312 29.1919 41.7682 34.6553 37.7399 38.6835C33.7117 42.7117 28.2483 44.9747 22.5516 44.9747C16.8549 44.9747 11.3914 42.7117 7.36324 38.6835C3.33504 34.6553 1.07202 29.1919 1.07202 23.4951C1.07202 23.159 1.20557 22.8365 1.44329 22.5988ZM3.64965 24.7627C3.95537 29.3242 5.90312 33.638 9.15591 36.8908C12.7087 40.4436 17.5272 42.4395 22.5516 42.4395C27.576 42.4395 32.3945 40.4436 35.9473 36.8908C39.2001 33.638 41.1478 29.3242 41.4535 24.7627H3.64965Z" fill="white"/>
</g>
<defs>
<clipPath id="clip0_2540_9857">
<rect width="45" height="45" fill="white"/>
</clipPath>
</defs>
</svg>
