<svg width="46" height="45" viewBox="0 0 46 45" fill="none" xmlns="http://www.w3.org/2000/svg">
    <g clip-path="url(#clip0_2540_9854)">
    <path d="M32.5362 30.7399L19.5718 19.7858C19.9062 19.1046 20.5306 18.5025 21.4447 17.9795C22.7246 17.2474 24.0357 16.9872 25.6367 16.8062L34.6765 24.3718C34.8639 27.2038 33.8606 29.2474 32.5362 30.7399ZM15.7193 33.2569L20.5447 37.3548C17.6951 38.74 15.3628 39.3394 13.8688 39.7041L11.5632 37.8389C13.3915 36.793 14.716 35.3005 15.7193 33.2569ZM29.8248 32.7808C27.6308 34.036 25.6196 35.1865 23.867 35.9441L16.843 30.1647C17.222 28.7232 17.4939 27.0979 17.2932 25.4982C17.2307 24.5542 17.3511 23.5055 17.5785 22.6406L29.8248 32.7808Z" fill="white"/>
    <path fill-rule="evenodd" clip-rule="evenodd" d="M18.8799 14.0568L18.947 14.0184C21.9079 12.3246 25.7161 11.6007 29.2215 12.3064C32.8579 13.0385 35.7923 15.3729 37.4168 18.1611C40.4812 23.4205 39.8992 27.9142 38.0082 31.2161C36.2459 34.2931 33.519 36.0574 32.5896 36.589C23.4097 41.8404 17.5106 44.2086 13.5604 44.8363C11.5442 45.1567 9.79661 45.0646 8.32034 44.4582C6.77609 43.8238 5.86312 42.7656 5.3016 41.8018C4.6638 40.7071 4.41166 39.3905 4.77858 38.0802C5.14444 36.7737 6.0422 35.7706 7.14366 35.1405L7.5127 34.9293C10.6198 33.1519 12.6393 29.5952 12.6063 25.8118C12.3754 21.055 14.8285 16.6761 18.8149 14.0988L18.8799 14.0568ZM15.4269 25.7112C15.4903 30.4648 12.976 35.0166 8.91659 37.3389L8.54755 37.55C7.44043 38.1833 7.12099 39.324 7.74894 40.4018C9.10949 42.7369 12.9184 44.6295 31.1858 34.1795C32.6619 33.335 40.0977 28.3628 34.9695 19.5611C33.7136 17.4056 31.4304 15.5982 28.6433 15.0371C25.8562 14.476 22.7497 15.0557 20.3509 16.4279C17.1342 18.5075 15.2285 21.9927 15.4269 25.7112Z" fill="white"/>
    </g>
    <defs>
    <clipPath id="clip0_2540_9854">
    <rect width="46" height="45" fill="white"/>
    </clipPath>
    </defs>
</svg>
