<svg width="242" height="339" viewBox="0 0 242 339" fill="none" xmlns="http://www.w3.org/2000/svg">
<g opacity="0.8">
<path opacity="0.8" d="M202.906 75.9553C205.83 75.65 208.821 75.7777 211.812 76.3747C208.252 77.1971 205.1 79.2977 202.945 82.2843C206.286 81.5241 209.726 81.3471 213.118 81.7613C214.497 84.7797 216.828 87.2461 219.748 88.7778C222.669 90.3094 226.015 90.8205 229.268 90.2317C232.521 89.6429 235.499 87.9872 237.738 85.5216C239.978 83.056 241.355 79.9184 241.655 76.5961C247.211 78.742 252.251 82.0475 256.446 86.2982C260.641 90.5489 263.897 95.6498 266.004 101.27C267.926 99.5394 269.44 97.2986 270.306 94.6664C271.087 92.2973 271.278 89.7745 270.862 87.3219C270.447 84.8693 269.438 82.5627 267.924 80.6067C270.157 81.4216 272.161 82.765 273.77 84.525L273.831 84.3396C274.924 81.0163 274.848 77.4218 273.616 74.166C272.383 70.9103 270.071 68.1938 267.07 66.4775C269.352 66.5923 271.575 67.2297 273.571 68.3415C273.603 65.1834 272.658 62.1013 270.866 59.5268C269.074 56.9522 266.526 55.0141 263.579 53.9836C269.929 51.6373 276.861 51.5113 283.259 53.6258C284.392 53.9984 285.503 54.438 286.585 54.9424C281.479 48.5758 274.655 43.8436 266.928 41.3121C240.781 32.7132 219.275 49.9411 213.02 68.9595C212.817 69.5774 212.627 70.2064 212.451 70.8334C209.002 71.955 205.772 73.6869 202.915 75.948L202.906 75.9553Z" fill="#F04E09"/>
<path opacity="0.8" d="M88.8789 109.501C88.6019 112.185 87.9238 114.848 86.8246 117.425C86.7578 114.073 85.4678 110.849 83.1953 108.355C83.2477 111.499 82.7581 114.623 81.7476 117.593C78.7806 118.27 76.1293 119.904 74.2054 122.243C72.2814 124.581 71.1925 127.493 71.1077 130.526C71.0228 133.559 71.9468 136.543 73.7361 139.015C75.5255 141.488 78.0801 143.31 81.0033 144.199C78.0317 148.792 74.1175 152.704 69.5147 155.68C64.912 158.657 59.7235 160.632 54.2861 161.477C55.476 163.526 57.2003 165.305 59.3979 166.574C61.3757 167.717 63.6023 168.359 65.8803 168.444C68.1582 168.528 70.4171 168.051 72.4565 167.056C71.3049 168.911 69.7225 170.461 67.841 171.578L67.9957 171.667C70.7704 173.269 74.0085 173.872 77.1607 173.372C80.3129 172.872 83.1849 171.3 85.2896 168.924C84.7566 170.954 83.7661 172.832 82.393 174.418C85.2193 175.036 88.1617 174.761 90.8083 173.632C93.455 172.502 95.6734 170.574 97.1529 168.117C98.0607 174.261 96.8676 180.514 93.7658 185.868C93.218 186.817 92.6144 187.733 91.9582 188.611C98.6303 185.211 104.16 179.961 107.887 173.49C120.525 151.599 109.126 129.061 93.2476 119.894C92.7317 119.596 92.2033 119.308 91.6741 119.033C91.3182 115.724 90.3733 112.499 88.8837 109.51L88.8789 109.501Z" fill="#F04E09"/>
<path opacity="0.8" d="M219.125 344.01C221 341.747 223.227 339.747 225.783 338.081C223.814 341.158 223.03 344.864 223.579 348.507C225.435 345.627 227.77 343.093 230.483 341.017C233.581 342.21 236.972 342.342 240.13 341.394C243.288 340.446 246.038 338.471 247.951 335.775C249.864 333.079 250.834 329.813 250.71 326.484C250.586 323.155 249.375 319.95 247.266 317.366C252.738 315.013 258.652 313.851 264.623 313.954C270.594 314.058 276.489 315.426 281.926 317.969C282.089 315.388 281.604 312.727 280.382 310.241C279.283 308.002 277.655 306.065 275.642 304.603C273.63 303.14 271.295 302.198 268.846 301.858C271.012 300.879 273.383 300.437 275.764 300.57L275.678 300.395C274.135 297.255 271.566 294.739 268.408 293.274C265.25 291.809 261.698 291.486 258.353 292.358C260.064 290.843 262.099 289.744 264.302 289.143C262.117 286.863 259.285 285.322 256.204 284.735C253.123 284.148 249.946 284.545 247.119 285.871C250.016 279.752 254.882 274.813 260.933 271.85C262.004 271.323 263.106 270.86 264.232 270.464C256.13 269.485 247.942 270.877 240.649 274.472C215.948 286.615 212.628 313.969 221.46 331.936C221.747 332.52 222.051 333.102 222.364 333.673C220.683 336.888 219.586 340.384 219.126 343.999L219.125 344.01Z" fill="#F04E09"/>
<path opacity="0.8" fill-rule="evenodd" clip-rule="evenodd" d="M137.771 28.5541C137.83 26.7428 136.991 25.6456 134.558 26.2975L126.525 28.45C124.481 28.9978 123.824 30.3149 123.627 31.6269C123.627 31.6269 122.169 42.5269 118.089 50.4467C116.711 52.7955 116.017 53.6094 114.995 53.8833C114.484 54.0202 113.559 53.6401 113.109 51.9619L108.909 36.2875C108.37 34.2749 107.567 33.5299 105.865 33.9858L93.2325 37.3707C91.9564 37.7127 91.4381 38.8512 91.6757 39.7378C92.1862 41.643 95.1996 41.3091 96.9334 46.5924L100.056 58.2447C100.74 60.8003 100.396 61.3891 99.3742 61.6629C96.6506 62.3927 87.3854 54.3167 80.4327 44.0986C79.083 42.1091 78.075 41.4322 76.0216 41.9824L67.9823 44.1365C65.6871 44.7515 65.5133 45.9391 65.8281 47.1141C66.3888 49.2065 71.8976 58.8711 85.5424 69.9497C94.6987 77.5584 105.412 80.1431 113.928 77.8611C119.036 76.4925 119.364 75.1946 118.842 73.2464L116.94 66.1501C116.334 63.889 116.697 63.3084 118.316 62.8747C119.51 62.5549 121.709 62.597 127.689 65.8447C134.574 69.7511 136.115 71.9161 139.182 71.0945L147.215 68.942C149.51 68.327 150.358 66.8896 149.099 64.8333C147.775 62.8072 144.31 60.2797 139.836 57.3781C137.379 55.7016 133.941 54.1074 132.772 53.1611C131.178 51.9737 131.338 51.2108 131.83 49.6421C131.83 49.6421 137.984 33.4392 137.767 28.5549L137.771 28.5541Z" fill="#F04E09"/>
<path opacity="0.8" fill-rule="evenodd" clip-rule="evenodd" d="M191.978 224.422C192.935 222.883 192.757 221.513 190.324 220.861L182.291 218.709C180.247 218.161 179.019 218.973 178.193 220.011C178.193 220.011 171.48 228.722 163.987 233.54C161.619 234.886 160.611 235.244 159.589 234.97C159.078 234.833 158.467 234.041 158.917 232.363L163.117 216.688C163.656 214.676 163.333 213.629 161.631 213.173L148.998 209.788C147.722 209.446 146.704 210.173 146.467 211.06C145.956 212.965 148.733 214.182 147.593 219.625L144.471 231.277C143.786 233.833 143.193 234.171 142.171 233.897C139.448 233.167 135.462 221.54 134.55 209.215C134.375 206.817 133.841 205.727 131.788 205.177L123.748 203.022C121.453 202.407 120.709 203.349 120.394 204.524C119.833 206.616 119.772 217.741 126.049 234.157C130.174 245.325 138.16 252.92 146.676 255.202C151.784 256.57 152.717 255.61 153.239 253.662L155.14 246.566C155.746 244.305 156.351 243.983 157.97 244.417C159.163 244.737 161.046 245.873 164.602 251.676C168.611 258.501 168.863 261.147 171.93 261.968L179.963 264.121C182.258 264.736 183.711 263.915 183.649 261.505C183.516 259.088 181.778 255.167 179.355 250.417C178.065 247.737 175.885 244.637 175.346 243.233C174.559 241.408 175.079 240.827 176.289 239.714C176.289 239.714 189.72 228.759 191.975 224.421L191.978 224.422Z" fill="#F04E09"/>
<path opacity="0.8" fill-rule="evenodd" clip-rule="evenodd" d="M240.857 243.964C241.269 245.728 242.363 246.571 244.544 245.312L251.747 241.154C253.579 240.095 253.873 238.653 253.723 237.335C253.723 237.335 252.311 226.429 254.202 217.723C254.925 215.098 255.385 214.132 256.301 213.603C256.759 213.338 257.751 213.466 258.62 214.971L266.734 229.024C267.776 230.828 268.744 231.34 270.27 230.459L281.596 223.92C282.74 223.259 282.946 222.026 282.487 221.231C281.501 219.522 278.677 220.625 275.634 215.97L269.603 205.523C268.28 203.232 268.46 202.574 269.376 202.045C271.818 200.635 282.858 206.038 292.218 214.109C294.037 215.681 295.186 216.074 297.027 215.011L304.235 210.85C306.293 209.661 306.153 208.469 305.545 207.416C304.462 205.54 296.639 197.63 280.592 190.461C269.778 185.481 258.762 185.757 251.126 190.166C246.546 192.81 246.566 194.148 247.574 195.895L251.247 202.257C252.418 204.285 252.218 204.939 250.766 205.777C249.696 206.395 247.561 206.923 240.944 205.334C233.282 203.343 231.233 201.651 228.484 203.238L221.282 207.396C219.224 208.584 218.777 210.192 220.526 211.852C222.328 213.467 226.33 215.011 231.402 216.656C234.209 217.64 237.943 218.29 239.316 218.901C241.164 219.636 241.207 220.414 241.138 222.056C241.138 222.056 239.387 239.3 240.86 243.962L240.857 243.964Z" fill="#F04E09"/>
<path opacity="0.8" d="M170.018 18.6731L188.066 -12.5877L179.317 -17.6391L185.815 -28.8945L194.565 -23.8431L200.115 -33.4567C204.477 -41.0112 213.65 -44.9647 225.559 -38.0893C230.38 -35.3055 233.694 -32.8103 233.694 -32.8103L227.344 -22.4619C227.344 -22.4619 223.728 -24.5946 219.76 -26.8855C215.465 -29.3649 213.698 -27.8924 211.906 -24.7891L207.161 -16.5705L220.089 -9.10665L213.028 1.824L200.663 -5.31514L182.614 25.9457L170.018 18.6731Z" fill="#F04E09"/>
<path opacity="0.8" d="M197.059 183.578L179.01 152.318L170.261 157.369L163.763 146.114L172.512 141.062L166.961 131.449C162.6 123.894 163.763 113.973 175.671 107.097C180.493 104.314 184.311 102.692 184.311 102.692L190.098 113.365C190.098 113.365 186.443 115.43 182.475 117.721C178.18 120.201 178.572 122.468 180.363 125.571L185.108 133.79L198.036 126.326L203.972 137.906L191.607 145.045L209.655 176.306L197.059 183.578Z" fill="#F04E09"/>
<path opacity="0.8" d="M85.4039 324.876L116.665 306.827L111.613 298.078L122.869 291.58L127.92 300.329L137.534 294.779C145.088 290.417 155.01 291.58 161.885 303.489C164.669 308.31 166.291 312.128 166.291 312.128L155.618 317.915C155.618 317.915 153.552 314.26 151.261 310.292C148.782 305.998 146.515 306.389 143.411 308.181L135.193 312.926L142.657 325.854L131.076 331.789L123.937 319.424L92.6765 337.472L85.4039 324.876Z" fill="#F04E09"/>
<path opacity="0.8" d="M64.0521 -31.1441L46.0036 0.116784L54.7529 5.16817L48.2546 16.4236L39.5053 11.3722L33.9549 20.9858C29.5934 28.5402 20.4198 32.4938 8.51112 25.6183C3.68949 22.8345 0.376239 20.3394 0.376239 20.3394L6.7255 9.99092C6.7255 9.99092 10.3423 12.1237 14.3102 14.4145C18.6046 16.8939 20.3722 15.4214 22.1639 12.3181L26.9088 4.0996L13.981 -3.3643L21.0418 -14.2949L33.4071 -7.15581L51.4556 -38.4167L64.0521 -31.1441Z" fill="#F04E09"/>
</g>
</svg>
