<svg width="241" height="339" viewBox="0 0 241 339" fill="none" xmlns="http://www.w3.org/2000/svg">
<g opacity="0.8">
<path opacity="0.8" d="M37.8411 245.559C34.9164 245.865 31.9244 245.737 28.9312 245.14C32.4929 244.317 35.6461 242.215 37.8026 239.228C34.4605 239.988 31.0182 240.165 27.6255 239.751C26.2454 236.731 23.9135 234.264 20.992 232.731C18.0704 231.199 14.7226 230.688 11.4683 231.277C8.21404 231.866 5.23533 233.522 2.99466 235.989C0.753999 238.456 -0.623255 241.594 -0.92327 244.918C-6.4825 242.771 -11.524 239.464 -15.7207 235.212C-19.9173 230.959 -23.1753 225.857 -25.2832 220.234C-27.2054 221.965 -28.7206 224.207 -29.5866 226.84C-30.3676 229.21 -30.5587 231.734 -30.1431 234.188C-29.7274 236.641 -28.7179 238.949 -27.204 240.906C-29.4379 240.091 -31.4428 238.747 -33.0517 236.986L-33.1127 237.171C-34.2063 240.496 -34.1303 244.092 -32.8976 247.349C-31.6648 250.606 -29.3512 253.324 -26.3494 255.041C-28.6327 254.926 -30.8564 254.288 -32.8527 253.176C-32.8855 256.336 -31.9394 259.419 -30.1469 261.995C-28.3544 264.57 -25.8053 266.509 -22.8564 267.54C-29.2098 269.887 -36.1444 270.013 -42.5446 267.898C-43.6789 267.525 -44.7902 267.085 -45.8726 266.581C-40.7645 272.95 -33.937 277.684 -26.2068 280.217C-0.0488467 288.819 21.4656 271.584 27.7228 252.558C27.9261 251.94 28.1161 251.31 28.2919 250.683C31.7433 249.561 34.9738 247.828 37.8319 245.566L37.8411 245.559Z" fill="#FF7236"/>
<path opacity="0.8" d="M171.476 206C170.374 203.536 169.629 200.889 169.292 198.107C171.027 200.978 173.757 203.126 176.973 204.15C175.356 201.452 174.217 198.5 173.606 195.422C175.839 193.351 177.318 190.609 177.815 187.621C178.312 184.632 177.799 181.565 176.356 178.895C174.912 176.225 172.619 174.102 169.832 172.855C167.045 171.607 163.92 171.307 160.943 171.998C161.22 166.533 162.655 161.186 165.153 156.305C167.652 151.423 171.16 147.117 175.448 143.665C173.392 142.485 171.008 141.806 168.47 141.806C166.184 141.805 163.934 142.362 161.918 143.429C159.902 144.495 158.184 146.038 156.914 147.92C156.985 145.737 157.58 143.603 158.652 141.694L158.473 141.694C155.267 141.694 152.161 142.792 149.68 144.802C147.199 146.812 145.497 149.61 144.862 152.721C144.308 150.696 144.227 148.573 144.623 146.513C141.865 147.39 139.454 149.1 137.726 151.403C135.998 153.706 135.04 156.486 134.987 159.354C131.127 154.485 129.034 148.472 129.043 142.281C129.042 141.185 129.107 140.089 129.236 139C125.157 145.284 122.992 152.598 123 160.068C123 185.356 144.15 199.181 162.492 199.181C163.088 199.181 163.69 199.166 164.286 199.139C166.25 201.828 168.681 204.15 171.467 205.994L171.476 206Z" fill="#FF7236"/>
<path opacity="0.8" d="M21.6159 -22.607C19.7392 -20.3431 17.5115 -18.3417 14.9546 -16.675C16.9246 -19.7542 17.7084 -23.4616 17.1597 -27.1054C15.3031 -24.2241 12.9668 -21.69 10.2522 -19.613C7.15382 -20.8059 3.76141 -20.9384 0.601676 -19.99C-2.55805 -19.0417 -5.30833 -17.0655 -7.22215 -14.3683C-9.13597 -11.6712 -10.1063 -8.4039 -9.98238 -5.07381C-9.85849 -1.74371 -8.64737 1.46289 -6.53703 4.04818C-12.0117 6.40224 -17.9278 7.56507 -23.9015 7.46118C-29.8752 7.35729 -35.7728 5.98901 -41.2118 3.44515C-41.3748 6.02682 -40.8897 8.6887 -39.6668 11.1764C-38.5672 13.4165 -36.9386 15.354 -34.9254 16.8168C-32.9121 18.2797 -30.5766 19.2228 -28.126 19.5624C-30.2928 20.5423 -32.6656 20.9841 -35.047 20.8511L-34.9609 21.0263C-33.4171 24.1673 -30.8476 26.6842 -27.6884 28.1498C-24.5292 29.6154 -20.9749 29.9394 -17.6286 29.0669C-19.3408 30.5818 -21.376 31.6815 -23.5807 32.2828C-21.3943 34.5638 -18.5615 36.1057 -15.479 36.6927C-12.3964 37.2798 -9.21837 36.8825 -6.38977 35.5567C-9.28872 41.6781 -14.1566 46.6186 -20.2103 49.5833C-21.2818 50.1103 -22.3836 50.5733 -23.5101 50.9697C-15.4045 51.949 -7.21368 50.5569 0.0823591 46.9601C24.7941 34.8123 28.1155 7.44645 19.2796 -10.528C18.9925 -11.1119 18.6882 -11.6947 18.3751 -12.2659C20.057 -15.4818 21.1538 -18.9797 21.6144 -22.5954L21.6159 -22.607Z" fill="#FF7236"/>
<path opacity="0.8" fill-rule="evenodd" clip-rule="evenodd" d="M154.893 230.213C154.482 228.447 153.387 227.604 151.205 228.864L144 233.024C142.166 234.083 141.872 235.526 142.022 236.844C142.022 236.844 143.435 247.755 141.543 256.464C140.82 259.091 140.36 260.057 139.443 260.586C138.985 260.851 137.992 260.723 137.123 259.218L129.006 245.159C127.964 243.354 126.995 242.842 125.469 243.723L114.138 250.265C112.993 250.925 112.787 252.16 113.247 252.955C114.233 254.664 117.059 253.561 120.102 258.218L126.136 268.669C127.46 270.961 127.28 271.619 126.363 272.149C123.92 273.559 112.876 268.154 103.511 260.08C101.692 258.507 100.543 258.114 98.7007 259.177L91.4898 263.341C89.4312 264.529 89.5707 265.722 90.1792 266.776C91.2628 268.652 99.0885 276.565 115.142 283.738C125.96 288.719 136.982 288.443 144.621 284.033C149.202 281.388 149.183 280.049 148.174 278.301L144.499 271.936C143.328 269.908 143.529 269.253 144.981 268.415C146.051 267.797 148.187 267.268 154.807 268.858C162.472 270.85 164.521 272.543 167.272 270.955L174.477 266.795C176.536 265.607 176.983 263.998 175.234 262.337C173.43 260.722 169.427 259.177 164.353 257.531C161.545 256.547 157.809 255.897 156.435 255.285C154.587 254.551 154.544 253.772 154.613 252.129C154.613 252.129 156.365 234.878 154.891 230.214L154.893 230.213Z" fill="#FF7236"/>
<path opacity="0.8" fill-rule="evenodd" clip-rule="evenodd" d="M129.786 85.1342C130.975 83.766 131.017 82.3851 128.718 81.355L121.125 77.9537C119.192 77.0881 117.851 77.6953 116.87 78.5896C116.87 78.5896 108.857 86.1278 100.69 89.6977C98.1379 90.6504 97.0857 90.8441 96.1195 90.4113C95.6365 90.1949 95.1586 89.3158 95.8691 87.7296L102.506 72.9141C103.358 71.0117 103.205 69.9266 101.597 69.2061L89.6562 63.8573C88.45 63.317 87.329 63.8733 86.9536 64.7114C86.1469 66.5122 88.6963 68.1556 86.7062 73.3503L81.7725 84.364C80.6904 86.7796 80.0517 87.0193 79.0856 86.5865C76.5112 85.4333 74.4199 73.3165 75.4755 60.9973C75.6841 58.6012 75.3293 57.4395 73.3883 56.5701L65.7895 53.1662C63.6201 52.1944 62.7355 53.0063 62.2379 54.1169C61.352 56.0946 59.5253 67.0727 63.1198 84.2847C65.4217 95.9701 72.1035 104.74 80.1535 108.346C84.9812 110.508 86.0551 109.708 86.88 107.866L89.8846 101.159C90.842 99.0218 91.49 98.8003 93.0201 99.4857C94.1482 99.9911 95.8282 101.412 98.4188 107.708C101.296 115.087 101.125 117.74 104.023 119.038L111.616 122.439C113.785 123.411 115.351 122.831 115.672 120.44C115.924 118.032 114.831 113.883 113.191 108.807C112.343 105.955 110.681 102.547 110.371 101.075C109.884 99.1468 110.49 98.6555 111.861 97.7485C111.861 97.7485 126.867 89.06 129.783 85.1329L129.786 85.1342Z" fill="#FF7236"/>
<path opacity="0.8" fill-rule="evenodd" clip-rule="evenodd" d="M-0.126014 77.4811C-0.537835 75.7155 -1.63217 74.8724 -3.81437 76.1323L-11.0197 80.2923C-12.8533 81.3509 -13.1474 82.7939 -12.9973 84.1125C-12.9973 84.1125 -11.5841 95.023 -13.4764 103.733C-14.1998 106.359 -14.6594 107.325 -15.5762 107.855C-16.0346 108.119 -17.027 107.991 -17.8961 106.486L-26.0131 92.427C-27.0554 90.6218 -28.0244 90.1099 -29.5505 90.991L-40.8814 97.533C-42.0261 98.1938 -42.2321 99.4281 -41.7729 100.223C-40.7863 101.932 -37.9608 100.829 -34.9174 105.486L-28.8832 115.937C-27.5598 118.23 -27.7399 118.888 -28.6566 119.417C-31.0996 120.827 -42.1439 115.422 -51.5082 107.348C-53.3276 105.775 -54.4769 105.382 -56.3187 106.446L-63.5296 110.609C-65.5883 111.797 -65.4487 112.99 -64.8402 114.044C-63.7567 115.921 -55.9309 123.834 -39.877 131.006C-29.0589 135.988 -18.0375 135.712 -10.3985 131.301C-5.81723 128.656 -5.83645 127.317 -6.84532 125.57L-10.5201 119.205C-11.6911 117.177 -11.4909 116.522 -10.0389 115.683C-8.96837 115.065 -6.83248 114.537 -0.212493 116.126C7.45218 118.118 9.50204 119.812 12.2524 118.224L19.4578 114.064C21.5165 112.875 21.9639 111.267 20.2143 109.605C18.4108 107.99 14.4078 106.445 9.33313 104.8C6.52522 103.816 2.79 103.165 1.41567 102.554C-0.432181 101.819 -0.47544 101.04 -0.406652 99.3973C-0.406652 99.3973 1.34511 82.1464 -0.128763 77.4827L-0.126014 77.4811Z" fill="#FF7236"/>
<path opacity="0.8" d="M21.8864 364.872L33.168 330.568L23.5669 327.41L27.6288 315.059L37.2299 318.217L40.6993 307.667C43.4256 299.377 51.6007 293.629 64.6688 297.927C69.9599 299.667 73.7148 301.433 73.7148 301.433L69.6133 312.866C69.6133 312.866 65.6353 311.517 61.2811 310.085C56.5685 308.535 55.1387 310.338 54.0188 313.744L51.0528 322.763L65.2394 327.428L60.5602 339.576L46.9909 335.114L35.7093 369.418L21.8864 364.872Z" fill="#FF7236"/>
<path opacity="0.8" d="M59.6535 215.411L46.3967 181.82L36.9954 185.531L32.2224 173.436L41.6237 169.726L37.5469 159.396C34.3433 151.279 36.9547 141.632 49.7509 136.582C54.9319 134.538 58.9482 133.495 58.9482 133.495L63.1035 144.908C63.1035 144.908 59.1822 146.414 54.9186 148.097C50.3041 149.918 50.3577 152.219 51.6737 155.553L55.1589 164.384L69.0503 158.902L73.2189 171.235L59.932 176.479L73.1887 210.069L59.6535 215.411Z" fill="#FF7236"/>
<path opacity="0.8" d="M155.392 -3.46489L124.118 14.5911L129.172 23.344L117.912 29.845L112.858 21.0921L103.241 26.6448C95.683 31.0082 85.7575 29.8448 78.8792 17.9312C76.0942 13.1075 74.4718 9.28844 74.4718 9.28844L85.1491 3.49865C85.1491 3.49865 87.2158 7.15559 89.5076 11.1251C91.9881 15.4214 94.256 15.0297 97.3606 13.2373L105.583 8.49036L98.1155 -4.44287L109.7 -10.3811L116.843 1.98934L148.116 -16.0666L155.392 -3.46489Z" fill="#FF7236"/>
<path opacity="0.8" d="M176.753 352.703L194.809 321.429L186.056 316.376L192.557 305.115L201.31 310.169L206.863 300.551C211.226 292.994 220.403 289.039 232.317 295.917C237.141 298.702 240.455 301.198 240.455 301.198L234.103 311.551C234.103 311.551 230.485 309.417 226.515 307.125C222.219 304.645 220.451 306.118 218.659 309.223L213.912 317.445L226.845 324.912L219.781 335.847L207.411 328.705L189.355 359.979L176.753 352.703Z" fill="#FF7236"/>
</g>
</svg>
