<svg width="549" height="489" viewBox="0 0 549 489" fill="none" xmlns="http://www.w3.org/2000/svg">
<g opacity="0.04">
<path d="M467.596 154.646L462.1 152.239L467.596 154.646C466.267 157.681 463.743 160.031 460.621 161.141L307.344 215.598L460.621 270.055C463.743 271.165 466.267 273.515 467.596 276.55L462.1 278.957L467.596 276.55L528.751 416.235L589.906 276.55C591.235 273.515 593.759 271.165 596.881 270.055L750.159 215.598L596.881 161.141L598.89 155.487L596.881 161.141C593.759 160.031 591.235 157.681 589.906 154.646L528.751 14.9606L467.596 154.646Z" stroke="black" stroke-width="12" stroke-linejoin="round"/>
<path d="M180.888 248.942L136.263 350.872C134.934 353.907 132.41 356.258 129.288 357.367L17.9217 396.934L129.288 436.501C132.41 437.61 134.934 439.961 136.263 442.996L180.888 544.925L225.514 442.996C226.843 439.961 229.367 437.61 232.489 436.501L343.855 396.934L232.489 357.367C229.367 356.258 226.843 353.907 225.514 350.872L180.888 248.942Z" stroke="black" stroke-width="12" stroke-linejoin="round"/>
<path d="M453.613 446.157L413.71 537.299C412.381 540.334 409.857 542.685 406.735 543.794L307.344 579.106L406.735 614.419C409.857 615.528 412.381 617.879 413.71 620.914L453.613 712.056L493.516 620.914C494.844 617.879 497.369 615.528 500.491 614.419L599.882 579.106L500.491 543.794C497.369 542.685 494.844 540.334 493.516 537.299L453.613 446.157Z" stroke="black" stroke-width="12" stroke-linejoin="round"/>
</g>
</svg>
