<svg width="435" height="728" viewBox="0 0 435 728" fill="none" xmlns="http://www.w3.org/2000/svg">
<g opacity="0.04">
<path d="M-41.402 16.3536L13.0407 154.395C14.2604 157.488 16.7086 159.936 19.8011 161.155L157.842 215.598L19.8011 270.041C16.7084 271.26 14.2604 273.709 13.0407 276.801L-41.402 414.842L-95.8447 276.801C-97.0644 273.708 -99.5125 271.26 -102.605 270.041L-240.646 215.598L-102.605 161.155C-99.5125 159.936 -97.0644 157.488 -95.8447 154.395L-41.402 16.3536Z" stroke="black" stroke-width="12" stroke-linejoin="round"/>
<path d="M271.967 250.336L311.519 350.621C312.739 353.714 315.187 356.162 318.28 357.382L418.566 396.934L318.28 436.486C315.187 437.706 312.739 440.154 311.519 443.247L271.967 543.532L232.415 443.247C231.195 440.154 228.747 437.706 225.655 436.486L125.369 396.934L225.655 357.382C228.747 356.162 231.195 353.714 232.415 350.621L226.834 348.42L232.415 350.621L271.967 250.336Z" stroke="black" stroke-width="12" stroke-linejoin="round"/>
<path d="M-17.9737 538.227L-15.7723 543.809C-12.6797 542.589 -10.2316 540.141 -9.01189 537.048L-14.5935 534.847L-9.01188 537.048L26.2858 447.55L61.5835 537.048C62.8032 540.141 65.2513 542.589 68.3439 543.809L157.842 579.106L68.3439 614.404C65.2513 615.624 62.8032 618.072 61.5835 621.164L26.2858 710.663L-9.01188 621.164C-10.2316 618.072 -12.6797 615.624 -15.7724 614.404L-105.271 579.106L-15.7724 543.809L-17.9737 538.227Z" stroke="black" stroke-width="12" stroke-linejoin="round"/>
</g>
</svg>
