<svg width="595" height="232" viewBox="0 0 595 232" fill="none" xmlns="http://www.w3.org/2000/svg">
<g opacity="0.04">
<path d="M126.704 98.536L17.024 55.279L126.704 12.022C129.796 10.8023 132.244 8.35418 133.464 5.26151L176.721 -104.418L219.978 5.2615C221.198 8.35418 223.646 10.8023 226.739 12.022L336.418 55.279L226.739 98.536C223.646 99.7557 221.198 102.204 219.978 105.296L176.721 214.976L133.464 105.296C132.244 102.204 129.796 99.7557 126.704 98.536Z" stroke="black" stroke-width="12" stroke-linejoin="round"/>
<path d="M369.125 0.00720143L439.166 -27.6166C442.259 -28.8363 444.707 -31.2844 445.927 -34.3771L473.551 -104.418L501.174 -34.3771C502.394 -31.2844 504.842 -28.8363 507.935 -27.6166L577.976 0.00717705L507.935 27.631C504.842 28.8507 502.394 31.2988 501.174 34.3915L473.551 104.432L445.927 34.3915C444.707 31.2988 442.259 28.8507 439.166 27.631L436.965 33.2126L439.166 27.631L369.125 0.00720143Z" stroke="black" stroke-width="12" stroke-linejoin="round"/>
</g>
</svg>
