<svg width="549" height="558" viewBox="0 0 549 558" fill="none" xmlns="http://www.w3.org/2000/svg">
<g opacity="0.04">
<path d="M467.596 -15.3542L462.1 -17.7606L467.596 -15.3542C466.267 -12.3192 463.743 -9.96857 460.621 -8.85938L307.344 45.598L460.621 100.055C463.743 101.165 466.267 103.515 467.596 106.55L462.1 108.957L467.596 106.55L528.751 246.235L589.906 106.55C591.235 103.515 593.759 101.165 596.881 100.055L750.159 45.598L596.881 -8.85938L598.89 -14.5131L596.881 -8.85939C593.759 -9.9686 591.235 -12.3192 589.906 -15.3542L528.751 -155.039L467.596 -15.3542Z" stroke="black" stroke-width="12" stroke-linejoin="round"/>
<path d="M180.888 78.9425L136.263 180.872C134.934 183.907 132.41 186.258 129.288 187.367L17.9217 226.934L129.288 266.501C132.41 267.61 134.934 269.961 136.263 272.996L180.888 374.925L225.514 272.996C226.843 269.961 229.367 267.61 232.489 266.501L343.855 226.934L232.489 187.367C229.367 186.258 226.843 183.907 225.514 180.872L180.888 78.9425Z" stroke="black" stroke-width="12" stroke-linejoin="round"/>
<path d="M453.613 276.157L413.71 367.299C412.381 370.334 409.857 372.685 406.735 373.794L307.344 409.106L406.735 444.419C409.857 445.528 412.381 447.879 413.71 450.914L453.613 542.056L493.516 450.914C494.844 447.879 497.369 445.528 500.491 444.419L599.882 409.106L500.491 373.794C497.369 372.685 494.844 370.334 493.516 367.299L453.613 276.157Z" stroke="black" stroke-width="12" stroke-linejoin="round"/>
</g>
</svg>
