<svg width="31" height="38" viewBox="0 0 31 38" fill="none" xmlns="http://www.w3.org/2000/svg">
<g clip-path="url(#clip0_2588_1500)">
<path d="M18.3438 4.03043C19.6916 3.79875 21.0343 3.94514 22.2419 4.49193C24.2942 5.40786 25.738 7.09704 26.3539 9.23714C26.6192 10.2794 26.6595 11.3687 26.4717 12.4287C26.284 13.4886 25.8729 14.4936 25.2672 15.3732C24.318 16.7193 22.9923 17.7016 21.4281 18.1419C18.3809 19.0086 15.8593 20.7451 14.1747 23.212C13.9694 23.5001 13.6625 23.6944 13.3197 23.7533C12.9768 23.8122 12.6251 23.7312 12.3397 23.5275L10.463 22.1527C10.3305 22.0566 10.218 21.9344 10.1319 21.7932C10.0458 21.652 9.98798 21.4946 9.96169 21.3302C9.89374 20.9133 10.0126 20.5157 10.2965 20.1068C11.9298 17.7344 12.6912 14.8261 12.4779 11.6738C12.3276 9.41938 13.1707 7.31994 14.8505 5.74532C15.8054 4.84396 17.0122 4.25932 18.3438 4.03043ZM17.8002 0.69491C15.9003 1.0215 14.0873 1.88177 12.6239 3.24774C10.073 5.62359 8.9762 8.82961 9.1948 11.9124C9.34246 14.1501 8.86482 16.341 7.6209 18.1322L7.58034 18.1906C6.01193 20.449 6.49299 23.4009 8.55655 24.8978L10.4333 26.2726C11.4759 27.0363 12.7022 27.2884 13.8552 27.0903C15.0081 26.8921 16.1039 26.2408 16.8476 25.17C18.1591 23.2815 20.0936 22.0403 22.31 21.4021C24.4939 20.7696 26.5068 19.3949 27.9428 17.3478C28.8422 16.0546 29.447 14.5703 29.7126 13.0046C29.9781 11.4389 29.8975 9.83197 29.4768 8.30259C29.056 6.77322 28.3059 5.36055 27.2819 4.16908C26.2578 2.9776 24.9861 2.0378 23.5607 1.41919C21.7385 0.583719 19.7326 0.362739 17.8002 0.69491ZM7.30881 33.119C7.89946 33.9775 7.93812 35.1367 7.29993 36.0351C7.02554 36.4365 6.64303 36.747 6.19933 36.9284C5.75564 37.1097 5.27004 37.1542 4.8021 37.0562C4.33416 36.9583 3.90424 36.7222 3.56507 36.3769C3.22589 36.0316 2.99221 35.5922 2.8927 35.1125C2.41868 35.172 1.93803 35.0882 1.50972 34.8713C1.08142 34.6544 0.72407 34.3138 0.481518 33.8913C0.238966 33.4688 0.121757 32.9828 0.144267 32.4928C0.166776 32.0029 0.328027 31.5304 0.608238 31.1332C1.2302 30.2377 2.32349 29.8783 3.29 30.1751L6.65676 25.4302C6.93574 25.7079 7.25535 26.0302 7.59657 26.2801L9.47328 27.6549C9.86865 27.9298 10.2396 28.1575 10.7026 28.3351L7.30881 33.119Z" fill="#EF4D08"/>
</g>
<defs>
<clipPath id="clip0_2588_1500">
<rect width="31" height="38" fill="white"/>
</clipPath>
</defs>
</svg>
