<svg width="34" height="34" viewBox="0 0 34 34" fill="none" xmlns="http://www.w3.org/2000/svg">
<path d="M32.2414 7.61016C31.142 8.10368 29.9609 8.43714 28.7193 8.58786C30.0004 7.81129 30.9589 6.58906 31.4158 5.14923C30.2122 5.87349 28.8949 6.38329 27.5211 6.65647C26.5973 5.65724 25.3737 4.99494 24.0402 4.77239C22.7068 4.54983 21.3381 4.77948 20.1467 5.42567C18.9553 6.07186 18.0078 7.09845 17.4513 8.34604C16.8949 9.59364 16.7606 10.9924 17.0693 12.3253C14.6304 12.2012 12.2445 11.5591 10.0664 10.4404C7.88836 9.32182 5.96683 7.75176 4.42652 5.83215C3.89985 6.7525 3.59701 7.81957 3.59701 8.956C3.59642 9.97905 3.84512 10.9864 4.32103 11.8888C4.79694 12.7911 5.48534 13.5605 6.32517 14.1286C5.35119 14.0972 4.3987 13.8306 3.54698 13.351V13.431C3.54688 14.8659 4.03683 16.2566 4.93368 17.3672C5.83054 18.4778 7.07907 19.2398 8.46741 19.524C7.56389 19.7717 6.61661 19.8082 5.69712 19.6307C6.08883 20.8653 6.85184 21.945 7.87934 22.7184C8.90684 23.4919 10.1474 23.9206 11.4273 23.9443C9.25457 25.6722 6.57125 26.6095 3.809 26.6053C3.31969 26.6055 2.8308 26.5765 2.34485 26.5187C5.14869 28.3449 8.41256 29.3141 11.7459 29.3104C23.0299 29.3104 29.1986 19.8428 29.1986 11.6317C29.1986 11.3649 29.192 11.0955 29.1801 10.8287C30.38 9.94968 31.4157 8.86116 32.2388 7.61416L32.2414 7.61016Z" fill="#FF7134"/>
</svg>
